<svg width="38" height="38" viewBox="0 0 38 38" fill="none" xmlns="http://www.w3.org/2000/svg">
<rect x="37" y="1" width="36" height="36" rx="18" transform="rotate(90 37 1)" fill="white" fill-opacity="0.01"/>
<rect x="37" y="1" width="36" height="36" rx="18" transform="rotate(90 37 1)" stroke="#187DA4" stroke-width="2"/>
<mask id="path-2-outside-1_1437_999" maskUnits="userSpaceOnUse" x="13.377" y="9.87353" width="11" height="18" fill="black">
<rect fill="white" x="13.377" y="9.87353" width="11" height="18"/>
<path fill-rule="evenodd" clip-rule="evenodd" d="M23.1933 11.0572C23.2515 11.1152 23.2977 11.1842 23.3292 11.2601C23.3607 11.336 23.377 11.4174 23.377 11.4997C23.377 11.5819 23.3607 11.6633 23.3292 11.7392C23.2977 11.8151 23.2515 11.8841 23.1933 11.9422L16.1346 18.9997L23.1933 26.0572C23.2514 26.1153 23.2975 26.1842 23.329 26.2602C23.3604 26.3361 23.3766 26.4175 23.3766 26.4997C23.3766 26.5818 23.3604 26.6632 23.329 26.7391C23.2975 26.8151 23.2514 26.884 23.1933 26.9422C23.1352 27.0003 23.0662 27.0464 22.9903 27.0778C22.9144 27.1093 22.833 27.1254 22.7508 27.1254C22.6687 27.1254 22.5873 27.1093 22.5114 27.0778C22.4354 27.0464 22.3664 27.0003 22.3083 26.9422L14.8083 19.4422C14.7501 19.3841 14.704 19.3151 14.6724 19.2392C14.6409 19.1633 14.6247 19.0819 14.6247 18.9997C14.6247 18.9174 14.6409 18.836 14.6724 18.7601C14.704 18.6842 14.7501 18.6152 14.8083 18.5572L22.3083 11.0572C22.3664 10.9989 22.4354 10.9528 22.5113 10.9213C22.5872 10.8898 22.6686 10.8735 22.7508 10.8735C22.833 10.8735 22.9144 10.8898 22.9904 10.9213C23.0663 10.9528 23.1353 10.9989 23.1933 11.0572Z"/>
</mask>
<path fill-rule="evenodd" clip-rule="evenodd" d="M23.1933 11.0572C23.2515 11.1152 23.2977 11.1842 23.3292 11.2601C23.3607 11.336 23.377 11.4174 23.377 11.4997C23.377 11.5819 23.3607 11.6633 23.3292 11.7392C23.2977 11.8151 23.2515 11.8841 23.1933 11.9422L16.1346 18.9997L23.1933 26.0572C23.2514 26.1153 23.2975 26.1842 23.329 26.2602C23.3604 26.3361 23.3766 26.4175 23.3766 26.4997C23.3766 26.5818 23.3604 26.6632 23.329 26.7391C23.2975 26.8151 23.2514 26.884 23.1933 26.9422C23.1352 27.0003 23.0662 27.0464 22.9903 27.0778C22.9144 27.1093 22.833 27.1254 22.7508 27.1254C22.6687 27.1254 22.5873 27.1093 22.5114 27.0778C22.4354 27.0464 22.3664 27.0003 22.3083 26.9422L14.8083 19.4422C14.7501 19.3841 14.704 19.3151 14.6724 19.2392C14.6409 19.1633 14.6247 19.0819 14.6247 18.9997C14.6247 18.9174 14.6409 18.836 14.6724 18.7601C14.704 18.6842 14.7501 18.6152 14.8083 18.5572L22.3083 11.0572C22.3664 10.9989 22.4354 10.9528 22.5113 10.9213C22.5872 10.8898 22.6686 10.8735 22.7508 10.8735C22.833 10.8735 22.9144 10.8898 22.9904 10.9213C23.0663 10.9528 23.1353 10.9989 23.1933 11.0572Z" fill="#187DA4"/>
<path d="M23.1933 11.9422L22.8402 11.5882L22.8398 11.5886L23.1933 11.9422ZM16.1346 18.9997L15.7811 18.6461L15.4274 18.9997L15.7811 19.3532L16.1346 18.9997ZM23.1933 26.0572L23.5469 25.7036L23.5469 25.7036L23.1933 26.0572ZM23.329 26.2602L22.8671 26.4515L23.329 26.2602ZM22.7508 27.1254L22.7508 26.6254L22.7508 27.1254ZM22.3083 26.9422L22.6619 26.5886L22.3083 26.9422ZM14.8083 19.4422L15.1619 19.0886L15.1614 19.0882L14.8083 19.4422ZM14.8083 18.5572L15.1614 18.9112L15.1619 18.9107L14.8083 18.5572ZM22.3083 11.0572L22.6619 11.4107L22.6623 11.4103L22.3083 11.0572ZM22.8402 11.4112C22.8519 11.4228 22.8611 11.4366 22.8674 11.4517L23.791 11.0685C23.7343 10.9318 23.6512 10.8077 23.5464 10.7032L22.8402 11.4112ZM22.8674 11.4517C22.8737 11.4669 22.877 11.4832 22.877 11.4997L23.877 11.4997C23.877 11.3517 23.8478 11.2052 23.791 11.0685L22.8674 11.4517ZM22.877 11.4997C22.877 11.5161 22.8737 11.5324 22.8674 11.5476L23.791 11.9308C23.8478 11.7941 23.877 11.6476 23.877 11.4997L22.877 11.4997ZM22.8674 11.5476C22.8611 11.5627 22.8519 11.5765 22.8402 11.5882L23.5464 12.2962C23.6512 12.1917 23.7343 12.0675 23.791 11.9308L22.8674 11.5476ZM22.8398 11.5886L15.7811 18.6461L16.4881 19.3532L23.5469 12.2957L22.8398 11.5886ZM15.7811 19.3532L22.8398 26.4107L23.5469 25.7036L16.4881 18.6461L15.7811 19.3532ZM22.8398 26.4107C22.8515 26.4224 22.8607 26.4363 22.8671 26.4515L23.7909 26.0688C23.7344 25.9322 23.6514 25.8081 23.5469 25.7036L22.8398 26.4107ZM22.8671 26.4515C22.8734 26.4668 22.8766 26.4831 22.8766 26.4997L23.8766 26.4997C23.8766 26.3518 23.8475 26.2054 23.7909 26.0688L22.8671 26.4515ZM22.8766 26.4997C22.8766 26.5162 22.8734 26.5325 22.8671 26.5478L23.7909 26.9305C23.8475 26.7939 23.8766 26.6475 23.8766 26.4997L22.8766 26.4997ZM22.8671 26.5478C22.8607 26.5631 22.8515 26.5769 22.8398 26.5886L23.5469 27.2957C23.6514 27.1912 23.7344 27.0671 23.7909 26.9305L22.8671 26.5478ZM22.8398 26.5886C22.8281 26.6003 22.8142 26.6095 22.799 26.6159L23.1817 27.5397C23.3182 27.4832 23.4424 27.4002 23.5469 27.2957L22.8398 26.5886ZM22.799 26.6159C22.7837 26.6222 22.7674 26.6254 22.7508 26.6254L22.7508 27.6254C22.8987 27.6254 23.0451 27.5963 23.1817 27.5397L22.799 26.6159ZM22.7508 26.6254C22.7343 26.6254 22.718 26.6222 22.7027 26.6159L22.32 27.5397C22.4566 27.5963 22.603 27.6254 22.7508 27.6254L22.7508 26.6254ZM22.7027 26.6159C22.6874 26.6095 22.6736 26.6003 22.6619 26.5886L21.9548 27.2957C22.0593 27.4002 22.1834 27.4832 22.32 27.5397L22.7027 26.6159ZM22.6619 26.5886L15.1619 19.0886L14.4548 19.7957L21.9548 27.2957L22.6619 26.5886ZM15.1614 19.0882C15.1498 19.0765 15.1406 19.0627 15.1343 19.0476L14.2106 19.4308C14.2673 19.5675 14.3505 19.6916 14.4552 19.7962L15.1614 19.0882ZM15.1343 19.0476C15.128 19.0324 15.1247 19.0161 15.1247 18.9997L14.1247 18.9997C14.1247 19.1476 14.1539 19.2942 14.2106 19.4308L15.1343 19.0476ZM15.1247 18.9997C15.1247 18.9832 15.128 18.9669 15.1343 18.9517L14.2106 18.5685C14.1539 18.7052 14.1247 18.8517 14.1247 18.9997L15.1247 18.9997ZM15.1343 18.9517C15.1406 18.9366 15.1498 18.9228 15.1614 18.9112L14.4552 18.2032C14.3505 18.3077 14.2673 18.4318 14.2106 18.5685L15.1343 18.9517ZM15.1619 18.9107L22.6619 11.4107L21.9548 10.7036L14.4548 18.2036L15.1619 18.9107ZM22.6623 11.4103C22.6739 11.3986 22.6877 11.3894 22.7029 11.3831L22.3197 10.4594C22.183 10.5162 22.0588 10.5993 21.9543 10.704L22.6623 11.4103ZM22.7029 11.3831C22.7181 11.3768 22.7344 11.3735 22.7508 11.3735L22.7508 10.3735C22.6029 10.3735 22.4563 10.4027 22.3197 10.4594L22.7029 11.3831ZM22.7508 11.3735C22.7673 11.3735 22.7836 11.3768 22.7987 11.3831L23.182 10.4594C23.0453 10.4027 22.8988 10.3735 22.7508 10.3735L22.7508 11.3735ZM22.7987 11.3831C22.8139 11.3894 22.8277 11.3986 22.8393 11.4103L23.5473 10.704C23.4428 10.5993 23.3187 10.5162 23.182 10.4594L22.7987 11.3831Z" fill="#187DA4" mask="url(#path-2-outside-1_1437_999)"/>
</svg>
