<!-- <svg width="25" height="25" viewBox="0 0 25 25" fill="none" xmlns="http://www.w3.org/2000/svg">
<path d="M9.18945 16.082L2.71777 22.5537C2.64272 22.6286 2.52126 22.6287 2.44629 22.5537C2.37132 22.4787 2.37145 22.3573 2.44629 22.2822L8.91797 15.8105L9.18945 16.082ZM22.5537 22.2822C22.6286 22.3573 22.6287 22.4787 22.5537 22.5537C22.4787 22.6287 22.3573 22.6286 22.2822 22.5537L15.8105 16.082L16.082 15.8105L22.5537 22.2822ZM12.7715 12.5L12.5 12.7715L12.2285 12.5L12.5 12.2285L12.7715 12.5ZM2.44629 2.44629C2.52126 2.37131 2.64273 2.37144 2.71777 2.44629L9.18945 8.91797L8.91797 9.18945L2.44629 2.71777C2.37144 2.64272 2.37132 2.52126 2.44629 2.44629ZM22.2822 2.44629C22.3573 2.37144 22.4787 2.37132 22.5537 2.44629C22.6287 2.52126 22.6286 2.64272 22.5537 2.71777L16.082 9.18945L15.8105 8.91797L22.2822 2.44629Z" fill="white" stroke="currentColor" stroke-width="4.68175"/>
</svg> -->
<svg xmlns="http://www.w3.org/2000/svg" viewBox="0 0 24 24" fill="none" stroke="currentColor" stroke-width="2" stroke-linecap="round" stroke-linejoin="round">
  <path d="M18 6L6 18M6 6L18 18"/>
</svg>