<svg width="23" height="16" viewBox="0 0 23 16" fill="none" xmlns="http://www.w3.org/2000/svg">
<g clip-path="url(#clip0_1437_3153)">
<path fill-rule="evenodd" clip-rule="evenodd" d="M13.0825 4.69431V4.27521C13.0264 4.27301 12.9703 4.27026 12.9131 4.27026C12.2075 4.27026 11.5447 4.47321 10.9766 4.82026C11.1498 4.73941 11.3429 4.69431 11.542 4.69431H13.0825Z" fill="#322E2B"/>
<mask id="mask0_1437_3153" style="mask-type:luminance" maskUnits="userSpaceOnUse" x="0" y="2" width="23" height="14">
<path d="M0.5 2.60327H22.3741V15.3913H0.5V2.60327Z" fill="white"/>
</mask>
<g mask="url(#mask0_1437_3153)">
<path fill-rule="evenodd" clip-rule="evenodd" d="M21.0663 7.25957L19.886 8.43932C20.3947 9.00197 20.7077 9.74337 20.7077 10.5596C20.7077 12.3053 19.2865 13.7254 17.5408 13.7254H5.33077C3.58507 13.7254 2.16552 12.3053 2.16552 10.5596C2.16552 8.81387 3.58507 7.39322 5.33077 7.39322C6.23882 7.39322 7.10562 7.78812 7.70842 8.47507C7.93447 8.73357 8.29582 8.82652 8.62032 8.70772C8.94372 8.58947 9.16097 8.28532 9.16702 7.94267C9.19177 6.77612 9.76047 5.73607 10.6234 5.06287C10.7285 4.96387 10.8467 4.88137 10.976 4.81977C11.5436 4.47327 12.2069 4.26977 12.9125 4.26977C12.9697 4.26977 13.0258 4.27307 13.0819 4.27527V2.60822C13.0258 2.60712 12.9697 2.60327 12.9125 2.60327C10.5184 2.60327 8.45642 4.19937 7.75627 6.38287C7.02642 5.95772 6.19152 5.72727 5.33077 5.72727C2.66712 5.72727 0.499023 7.89537 0.499023 10.5596C0.499023 13.2238 2.66712 15.3913 5.33077 15.3913H17.5408C20.2055 15.3913 22.3736 13.2238 22.3736 10.5596C22.3736 9.28412 21.8759 8.12417 21.0663 7.25957Z" fill="#322E2B"/>
</g>
<mask id="mask1_1437_3153" style="mask-type:luminance" maskUnits="userSpaceOnUse" x="11" y="0" width="10" height="11">
<path d="M11.542 0.574951H20.4135V10.4637H11.542V0.574951Z" fill="white"/>
</mask>
<g mask="url(#mask1_1437_3153)">
<path fill-rule="evenodd" clip-rule="evenodd" d="M14.4152 6.02716H11.542L15.9777 10.4635L20.4135 6.02716H17.5414V0.574463H14.4152V6.02716Z" fill="#322E2B"/>
</g>
</g>
<defs>
<clipPath id="clip0_1437_3153">
<rect width="22" height="14.85" fill="white" transform="translate(0.5 0.574951)"/>
</clipPath>
</defs>
</svg>
