<svg width="14" height="12" viewBox="0 0 14 12" fill="none" xmlns="http://www.w3.org/2000/svg">
<path d="M11.6891 8.83343C13.1775 7.50518 14 6.00018 14 6.00018C14 6.00018 11.375 1.18768 7 1.18768C6.15964 1.19057 5.3288 1.36568 4.55875 1.70218L5.2325 2.3768C5.79901 2.17044 6.39708 2.06415 7 2.06268C8.855 2.06268 10.3941 3.08468 11.522 4.21255C12.0648 4.75828 12.5514 5.35717 12.9745 6.00018C12.9237 6.0763 12.8678 6.16031 12.8039 6.25218C12.5107 6.67218 12.0776 7.23218 11.522 7.78781C11.3776 7.93218 11.2271 8.07481 11.0696 8.21306L11.6891 8.83343Z" fill="#21005D"/>
<path d="M9.88488 7.02918C10.0801 6.48304 10.1163 5.89268 9.98915 5.3268C9.862 4.76091 9.57678 4.24276 9.16666 3.83265C8.75654 3.42253 8.23839 3.1373 7.67251 3.01016C7.10662 2.88301 6.51626 2.91917 5.97013 3.11443L6.69025 3.83455C7.02652 3.78642 7.36938 3.81727 7.69166 3.92465C8.01394 4.03203 8.30679 4.21299 8.54699 4.45319C8.78719 4.69339 8.96815 4.98624 9.07553 5.30852C9.18291 5.6308 9.21376 5.97366 9.16563 6.30993L9.88488 7.02918ZM7.30975 8.1658L8.029 8.88505C7.48286 9.08031 6.8925 9.11648 6.32662 8.98933C5.76073 8.86218 5.24259 8.57696 4.83247 8.16684C4.42235 7.75672 4.13712 7.23857 4.00998 6.67269C3.88283 6.1068 3.91899 5.51644 4.11425 4.9703L4.83437 5.69043C4.78624 6.0267 4.81709 6.36956 4.92447 6.69184C5.03185 7.01412 5.21281 7.30697 5.45301 7.54717C5.69321 7.78737 5.98606 7.96833 6.30834 8.07571C6.63062 8.18309 6.97348 8.21394 7.30975 8.1658Z" fill="#21005D"/>
<path d="M2.93125 3.78643C2.77375 3.92643 2.62238 4.06818 2.478 4.21255C1.93519 4.75828 1.44858 5.35717 1.0255 6.00018L1.19613 6.25218C1.48925 6.67218 1.92237 7.23218 2.478 7.78781C3.60588 8.91568 5.14587 9.93768 7 9.93768C7.6265 9.93768 8.21625 9.82131 8.7675 9.62268L9.44125 10.2982C8.6712 10.6347 7.84035 10.8098 7 10.8127C2.625 10.8127 0 6.00018 0 6.00018C0 6.00018 0.821625 4.49431 2.31087 3.16693L2.93038 3.7873L2.93125 3.78643ZM11.9403 11.5599L1.44025 1.05993L2.05975 0.44043L12.5597 10.9404L11.9403 11.5599Z" fill="#21005D"/>
</svg>
