<svg width="22" height="27" viewBox="0 0 22 30" fill="none" xmlns="http://www.w3.org/2000/svg">
<path d="M19.1058 24.6212L19.0341 24.7732L19.0287 24.8078L19.0411 24.8033L19.0666 24.854L19.0785 24.8651L19.1086 24.8796L19.0766 24.9103L19.0704 24.9538L19.083 25.0714L19.0813 25.1325L19.0739 25.185L19.059 25.2328L19.0179 25.3224L19.0065 25.3397L18.9866 25.3595L18.9675 25.3678L18.9177 25.3758L18.9095 25.3739L18.8891 25.4154L18.8678 25.5124L18.8626 25.5068L18.7642 25.4622L18.7276 25.4055L18.6886 25.3764L18.6467 25.3537L18.398 25.2838L18.3177 25.2947L18.2394 25.3243L18.2178 25.3444L18.2047 25.3697L18.2062 25.3828L18.2134 25.3992L18.223 25.4647L18.2453 25.4997L18.2506 25.5316L18.2438 25.567L18.2116 25.6358L18.2002 25.669L18.1957 25.7028L18.2002 25.8053L18.1952 25.843L18.1845 25.8679L18.1736 25.8867L18.1689 25.9054L18.1553 25.9823L18.1218 26.0387L17.8872 26.2449L17.8066 26.2902L17.4761 26.3482L17.2274 26.4476L17.1887 26.4753L17.0994 26.5615L17.0221 26.6049L16.9849 26.6352L16.9881 26.6438L16.8552 26.6698L16.8191 26.6893L16.7972 26.7133L16.7533 26.7829L16.7221 26.819L16.6266 26.8863L16.617 26.8983L16.5828 26.9522L16.5681 26.9589L16.5525 26.9582L16.5372 26.9636L16.5225 26.9894L16.5178 27.0381L16.53 27.0855L16.5513 27.1288L16.5736 27.1644L16.7425 27.3422L16.7784 27.4224L16.7848 27.4611L16.7856 27.4663L16.7985 27.5039L16.8178 27.5324L16.8753 27.5671L16.9237 27.6173L16.943 27.6278L16.9835 27.6677L17.0648 27.8576L17.1166 27.9354L17.1278 27.9467L16.973 28.1964L16.9599 28.2246L16.9552 28.2473L16.9545 28.2702L16.9502 28.2939L16.9349 28.3194L16.8897 28.3891L16.9289 28.4291L17.0625 28.4542L17.0985 28.448L17.1592 28.4211L17.1964 28.4271L17.2262 28.4497L17.2557 28.4856L17.3025 28.5663L17.3217 28.6182L17.3284 28.664L17.3269 28.7074L17.3217 28.7506L17.3157 28.7583L17.2872 28.829L17.2857 28.8389L17.247 28.8899L17.2406 28.8876L17.2426 28.9684L17.2478 28.9664L17.2451 28.9716L17.2223 29.0293L17.2163 29.0386V29.1007L17.2183 29.1228L17.2238 29.1423L17.2315 29.1605L17.2377 29.1821L17.2384 29.2117L17.17 29.2934L17.1534 29.3079L17.1276 29.3091L17.1127 29.2999L17.0993 29.2857L17.0762 29.2733L17.0512 29.2741L17.0314 29.2849L17.011 29.292L16.9847 29.2812L16.8672 29.192L16.7576 29.0706L16.7373 29.0542L16.7147 29.0461L16.6778 29.0397L16.6185 28.9916L16.6059 28.9036L16.6351 28.8209L16.7006 28.7883L16.653 28.742L16.5907 28.7007L16.5531 28.6542L16.5779 28.5918L16.5367 28.5971L16.4021 28.5622H16.3165L16.231 28.5829L16.1854 28.6059L16.1014 28.6814L16.0785 28.7019L16.041 28.7186L15.9904 28.7286L15.9411 28.7273L15.9073 28.7106L15.8359 28.6528L15.8166 28.6294L15.8035 28.6002L15.7784 28.524L15.7673 28.5034L15.7278 28.4956L15.6336 28.532L15.5929 28.5387L15.4543 28.5089L15.402 28.5165L15.3484 28.5447L15.3224 28.5486L15.2986 28.5273L15.2854 28.4878L15.2934 28.4629L15.3087 28.4414L15.3171 28.4132L15.3233 28.375L15.3308 28.3587L15.3248 28.3599L15.2899 28.3753L15.269 28.3884L15.2113 28.4369L15.1733 28.4524L15.178 28.4816L15.1857 28.5013L15.2033 28.5248L15.2229 28.5443L15.235 28.5526L15.2417 28.5722L15.2457 28.6677L15.2432 28.7011L15.2345 28.7238L15.1661 28.8122L15.147 28.8161L14.5958 28.7919L14.3945 28.8332L14.3674 28.8494L14.3434 28.9101L14.3186 28.9184L14.1834 28.8904L13.988 28.8896L13.8834 28.8686L13.839 28.8671L13.8308 28.8774L13.7639 28.9359L13.7475 28.9737L13.7287 29.0562L13.7165 29.0891L13.6729 29.1379L13.6208 29.1587L13.5082 29.1774L13.4539 29.1602L13.3949 29.1521L13.3404 29.1649L13.2273 29.2958L13.2568 29.3039L13.2828 29.3212L13.292 29.3477L13.2715 29.3829L13.2325 29.3998L13.1284 29.4023L13.0837 29.4166L13.0374 29.46L13.0056 29.503L12.9714 29.5399L12.9191 29.564L12.8616 29.5574L12.8668 29.4608L12.8155 29.4397L12.755 29.4563L12.5982 29.5654L12.5514 29.5798L12.3012 29.5762L12.2677 29.5565L12.2432 29.5084L12.2489 29.508L12.2566 29.4917L12.262 29.4671L12.2613 29.4432L12.2541 29.427L12.1343 29.2972L12.0109 29.2397L11.9945 29.2114L12.0719 29.1583L12.092 29.1338L12.0369 29.0921L12.0114 29.0776L11.9781 29.0753L11.9441 29.0851L11.8475 29.1296L11.7766 29.1383L11.756 29.132L11.7441 29.1151L11.7362 29.0967L11.7265 29.0854L11.4099 28.965L11.3519 28.9643L11.3186 28.9876L11.2701 29.0558L11.2395 29.0804L11.2113 29.0854L11.1091 29.0697L11.0717 29.0524L11.0521 29.0384L11.0394 29.022L11.0352 28.9914L11.0441 28.9688L11.0558 28.9517L11.0588 28.9377L11.0481 28.9044L11.0397 28.8977L11.0214 28.905L10.9812 28.9123L10.9452 28.9266L10.9487 28.9573L10.9696 28.9967L10.9854 29.0366L10.9824 29.0695L10.9581 29.2115L10.9918 29.23L11.0124 29.253L11.0253 29.2844L11.0352 29.3284L11.0357 29.4047L11.0139 29.4847L10.9789 29.5566L10.939 29.6099L10.9184 29.6238L10.8678 29.6416L10.843 29.6583L10.8286 29.6806L10.7753 29.7884L10.7321 29.8467L10.6852 29.8898L10.5779 29.9561L10.5256 29.9766L10.371 29.9956L10.3349 30L10.3242 29.9938L10.3339 29.9716L10.3559 29.9316L10.3656 29.9249L10.3974 29.9153L10.409 29.9038L10.4149 29.8801L10.4137 29.8588L10.4083 29.8356L10.4516 29.7042L10.4534 29.6403L10.4092 29.6163L10.3038 29.6356L10.2753 29.6673L10.2651 29.6752L10.2527 29.6751L10.2279 29.6599L10.216 29.6583L10.1845 29.6735L10.1662 29.6872L10.15 29.6879L10.1267 29.6651L10.1138 29.6312L10.1116 29.593L10.1052 29.5561L10.0789 29.5252L10.1335 29.4825L10.1446 29.4451L10.1236 29.4034L10.0055 29.2296L9.97829 29.2421L9.95696 29.2609L9.9359 29.2701L9.90964 29.2543L9.90593 29.2335L9.90521 29.2227V29.2119L9.88338 29.1639L9.85335 29.1338L9.82831 29.1004L9.82161 29.0415L9.79258 29.0649L9.7564 29.0721L9.68498 29.0663L9.61279 29.0394L9.60066 29.0428L9.57113 29.0619L9.55179 29.0634L9.50293 29.038L9.49373 29.0003L9.49844 28.9569L9.49052 28.9147L9.46249 28.8839L9.42852 28.8716L9.39257 28.8757L9.35783 28.8943L9.30553 28.9554L9.27578 29.0203L9.24104 29.0748L9.17555 29.1061L9.02181 29.1087L8.88153 29.07L8.87134 29.0672L8.86557 29.0636L8.20755 28.6514L8.11431 28.6297L8.02456 28.6298L7.99209 28.5788H7.8594L7.59186 28.5485L7.54649 28.5666L7.50831 28.6083L7.421 28.6364L7.32704 28.6453L7.26825 28.6298L7.19856 28.5775L7.19678 28.5757L7.16282 28.5416L7.1626 28.5167L7.20676 28.5064L7.14476 28.4474L7.06642 28.4014L7.00193 28.3985L6.98038 28.4686L6.99999 28.4907L6.87329 28.4925L6.86858 28.4692L6.86265 28.4419L6.84353 28.4182L6.83334 28.389L6.84126 28.3656L6.87323 28.3173L6.87966 28.3038L6.86381 28.2676L6.84026 28.263L6.81373 28.2686L6.78891 28.2629L6.77107 28.2344L6.75223 28.1929L6.72918 28.1577L6.69821 28.1473L6.67638 28.1703L6.66397 28.2483L6.63422 28.2679L6.61068 28.2503L6.60225 28.2068L6.60004 28.1606L6.59633 28.1344L6.55195 28.1143L6.49217 28.1109L6.454 28.1329L6.47632 28.1894L6.44009 28.2079L6.31089 28.2338L6.28413 28.2331L6.26529 28.2443L6.23283 28.2924L6.22169 28.3185L6.20358 28.3901L6.17803 28.4141L6.11731 28.4476L6.09377 28.4747L6.09105 28.5011L6.10125 28.5272L6.10717 28.5577L6.09183 28.5963L6.1295 28.6103L6.14141 28.6121L6.20291 28.6593L6.2525 28.6877L6.29516 28.6859L6.33061 28.6674L6.36385 28.6436L6.39981 28.6254L6.51638 28.6054L6.54984 28.6112L6.57716 28.6224L6.58824 28.6271L6.61007 28.6292L6.59644 28.7138L6.58081 28.7058L6.57932 28.6839L6.5771 28.6782L6.56669 28.6786L6.55405 28.6833L6.54536 28.6909L6.53993 28.7106L6.54391 28.7268L6.54962 28.7408L6.55062 28.7531L6.54763 28.7774L6.54885 28.8028L6.54613 28.8295L6.53572 28.8479L6.53051 28.8571L6.49826 28.868L6.47671 28.8414L6.47173 28.8352L6.44319 28.7869L6.40624 28.7521L6.33433 28.7594L6.26092 28.8083L6.23288 28.8693L6.22989 28.8863L6.16324 28.8976L6.15598 28.8988L6.00246 28.8978L5.91144 28.8735L5.88789 28.858L5.87105 28.8236L5.85814 28.7892L5.84523 28.7737L5.81747 28.7708L5.75525 28.7516L5.71187 28.7518L5.58245 28.7737L5.57004 28.7818L5.55813 28.7993L5.54179 28.8167L5.49791 28.8299L5.44583 28.8582L5.42622 28.8734L5.40588 28.8969L5.39619 28.915L5.38555 28.9305L5.36223 28.9464L5.25436 28.9708H4.94216L4.93574 28.9557L4.93102 28.9222L4.92294 28.8889L4.90831 28.8737L4.75357 28.8643L4.71983 28.8469L4.67617 28.9156L4.638 28.9616L4.5929 28.9874L4.49833 29.0071L4.39306 29.0291L4.34026 29.022L4.30542 29.0034L4.21627 28.956L4.22248 28.9561L4.27899 28.9566L4.30453 28.9318L4.336 28.8425L4.2817 28.8482L4.15932 28.8852L4.16912 28.8488L4.17483 28.8359L4.16962 28.8019L4.15699 28.7833L4.14164 28.7699L4.12724 28.7518L4.07317 28.6432L4.0407 28.5976L4.00524 28.5789L3.99583 28.5624L3.98812 28.5239L3.98142 28.447L3.98984 28.4256L4.02951 28.3831L4.04364 28.3594L4.04486 28.3009L4.0151 28.1756L4.02153 28.1259L4.05577 28.0099L4.06918 27.9927L4.10164 27.9748L4.10685 27.9347L4.09444 27.8679L4.09494 27.852L4.09295 27.8429L4.09173 27.8338L4.09444 27.8188L4.10164 27.8032L4.11749 27.7877L4.12719 27.77L4.14231 27.734L4.1468 27.7179L4.14381 27.6596L4.15671 27.6117L4.2207 27.5434L4.24353 27.5002L4.23832 27.3879L4.13466 27.2043L4.12724 27.0557L4.14237 26.9854L4.15849 26.9305L4.17583 26.8983L4.19217 26.8765L4.20431 26.8482L4.20901 26.7962L4.22486 26.752L4.37661 26.5383L4.40193 26.4859L4.41705 26.4246L4.42204 26.3512L4.43866 26.2752L4.47733 26.2433L4.52149 26.2192L4.55445 26.166L4.55744 26.1154L4.54531 26.0671L4.52969 26.0209L4.52199 25.9773L4.5247 25.9297L4.54232 25.834L4.55445 25.7927L4.57107 25.7583L4.5867 25.7348L4.59883 25.6996L4.60382 25.6305L4.61623 25.5975L4.64498 25.5679L4.70498 25.5202V25.4953L4.67673 25.4181L4.67695 25.2917L4.69728 25.1728L4.79845 25.0139L4.82648 24.9939L4.86615 24.9809L4.90283 24.9489L4.96853 24.8698L4.99707 24.8512L5.02881 24.82L5.05457 24.7854L5.06521 24.7565L5.0682 24.687L5.08083 24.6544L5.10809 24.6453L5.17552 24.6442L5.19386 24.6378L5.20749 24.6259L5.21269 24.6058L5.2179 24.5714L5.22904 24.552L5.24017 24.5412L5.24538 24.5322L5.26643 24.5312L5.35447 24.4837L5.3691 24.471L5.39885 24.4206L5.50772 24.1192L5.58262 23.9765L5.63198 23.9195L5.63298 23.9183L5.60522 23.892L5.36943 23.8428L4.98903 23.6387L4.94565 23.6337L4.80903 23.6481L4.60941 23.5899L4.58287 23.5971L4.52658 23.628L4.49733 23.6357L4.47428 23.6323L4.42342 23.614L4.39689 23.6095L4.36664 23.6159L4.3386 23.6281L4.30985 23.6355L4.30054 23.6334L4.27661 23.6279L4.25428 23.6088L4.23095 23.5612L4.21334 23.5392L4.16004 23.5113L4.05516 23.4929L4.00286 23.4595L3.97134 23.4194L3.91704 23.3308L3.8833 23.2954L3.88751 23.2833L3.89344 23.2749L3.91128 23.2633L3.89543 23.21L3.85205 23.1941L3.7484 23.187L3.73798 23.146L3.69138 23.142L3.64479 23.1562L3.6351 23.1591L3.59515 23.1819L3.58401 23.2002L3.56667 23.2535L3.55454 23.2739L3.53642 23.2824L3.48734 23.2887L3.46601 23.2961L3.45088 23.3145L3.42562 23.3664L3.41149 23.381L3.39637 23.3787L3.33188 23.3483L3.12506 23.3464L3.08738 23.3335L3.04971 23.3137L2.95796 23.2467L2.94483 23.2449L2.923 23.2666L2.925 23.2869L2.9327 23.3061L2.92899 23.3247L2.85536 23.3714L2.80256 23.3297L2.7748 23.2288L2.77602 23.0989L2.72416 23.0963L2.57441 23.011L2.54787 23.007L2.47795 23.0139L2.37778 22.9909L2.35374 22.9968L2.33983 23.0479L2.35795 23.1075L2.36714 23.1685L2.32576 23.2239L2.29523 23.2309L2.20177 23.1962L2.0949 23.1952L2.06664 23.183L2.03589 23.1315L2.0426 23.0865L2.05473 23.0399L2.0396 22.9814L2.02991 22.9816L1.99766 23.0029L1.98697 23.0041L1.98054 22.991L1.97583 22.962L1.97312 22.9539L1.96542 22.9385L1.94658 22.8702L1.93639 22.8595L1.90315 22.8475L1.89024 22.8374L1.88752 22.8225L1.89245 22.7852L1.88874 22.7696L1.72918 22.6148L1.68901 22.5658L1.67389 22.5229L1.68702 22.4891L1.72968 22.487L1.74009 22.4572L1.7319 22.4351L1.61533 22.3106L1.59871 22.2859L1.60342 22.2844L1.60292 22.2638L1.59649 22.2333L1.58164 22.2025L1.54048 22.1625L1.32031 22.0518L1.29377 22.0472L1.27416 22.0549L1.2285 22.0864L1.20296 22.0914L1.18246 22.0892L1.18263 22.0619L1.17521 21.9498L1.19089 21.8302L1.19554 21.7945V21.677L1.20917 21.6362L1.24535 21.579L1.30784 21.5015L1.33216 21.4513L1.35028 21.4244L1.35671 21.4077L1.35449 21.3831L1.33986 21.3687L1.32452 21.3582L1.32031 21.3459L1.35748 21.2934L1.53377 21.1785L1.52906 21.1705L1.51272 21.1515L1.52092 21.1334L1.53206 21.1279L1.55289 21.1362L1.53577 21.1131L1.52436 21.0864L1.51893 21.056L1.52064 21.0227L1.54397 21.0021L1.54497 20.9877L1.53854 20.9711L1.53882 20.9447L1.55023 20.8637L1.55372 20.8612L1.554 20.8298L1.5592 20.8245L1.55992 20.8253L1.54702 20.8113L1.5376 20.8107L1.46369 20.7888H1.34862L1.30673 20.7772L1.26607 20.7512L1.19715 20.6851L1.15648 20.6593L1.13537 20.6587L1.09942 20.6806L1.08008 20.6789L1.07759 20.6664L1.06324 20.6279L1.05354 20.602L1.04213 20.5815L1.00717 20.5588L0.925838 20.5223L0.888386 20.4841L0.809547 20.293L0.768383 20.2259L0.742621 20.2773L0.723507 20.2446L0.687052 20.1395L0.645666 20.076L0.63525 20.0456L0.641954 20.004L0.627051 19.9259L0.611427 19.8951L0.585388 19.88L0.607715 19.8362L0.616635 19.824L0.611205 19.8232L0.5968 19.8245L0.59259 19.8218L0.607715 19.7164L0.619349 19.6649L0.63597 19.6106L0.657799 19.5848L0.664724 19.5596L0.656303 19.5365L0.631981 19.5168L0.637189 19.4983L0.645111 19.4562L0.649599 19.4438L0.670209 19.431L0.718077 19.4271L0.735917 19.4154L0.750322 19.3799L0.751818 19.3376L0.73841 19.2949L0.706443 19.2591L0.731263 19.2265L0.785558 19.1879L0.809104 19.1513L0.858967 19.1276L0.962127 19.0984L1.00628 19.0584L0.995646 19.0245L1.00058 18.9866L1.01642 18.9504L1.04025 18.9212L1.07271 18.9023L1.09947 18.9046L1.12673 18.9154L1.15897 18.9212L1.22269 18.9095L1.25272 18.8774L1.25 18.8488L1.24773 18.8249L1.1644 18.6791L1.16119 18.6345L1.17781 18.584L1.19493 18.495L1.19665 18.432L1.18745 18.4191L1.17033 18.4158L1.14972 18.3816L1.13659 18.3433L1.12967 18.3093L1.13559 18.279L1.16235 18.2526L1.1187 18.2501L1.01482 18.226L0.978138 18.2084L0.972709 18.2031L0.967279 18.2012L0.961352 18.2031L0.956144 18.2084L0.875034 18.2336L0.85121 18.2325L0.832096 18.217L0.811542 18.1739L0.792207 18.1559L0.81132 18.1232L0.783286 18.121L0.763951 18.1128L0.760738 18.0956L0.779574 18.0664L0.739629 18.0158L0.783785 17.9461L0.85941 17.8829L0.912985 17.8508V17.837L0.940243 17.8038L0.957086 17.7701L0.951656 17.7474L0.786002 17.7433L0.736637 17.7172L0.708604 17.6627L0.740571 17.6421L0.594529 17.4177L0.548434 17.3714L0.508488 17.3676L0.413528 17.394L0.381782 17.3903L0.372363 17.3584L0.381283 17.3184L0.380064 17.2818L0.340119 17.2608L0.336628 17.2538L0.336351 17.2469L0.337847 17.24L0.341836 17.2329L0.347044 17.1834L0.331421 17.1602L0.307597 17.1435L0.289259 17.1116L0.279065 17.0629L0.31552 17.0721L0.34998 17.0396L0.362612 16.9944L0.357404 16.9594L0.355189 16.9265L0.376241 16.8883L0.409206 16.8694L0.463279 16.8741L0.490039 16.8419L0.504666 16.8026L0.505386 16.7723L0.485053 16.6939L0.48954 16.6686L0.502173 16.6479L0.506881 16.6325L0.428542 16.6051L0.371975 16.5694L0.353637 16.5491L0.347432 16.5187L0.343942 16.4636L0.353139 16.4319L0.367765 16.3997L0.362779 16.3798L0.276738 16.3902L0.213745 16.3693L0.180503 16.3647L0.148036 16.374L0.0858197 16.405L0.0530764 16.4117L0.0505834 16.3154L0.0136292 16.2054L0 16.1159L0.0672036 16.0803L0.100446 16.099L0.128978 16.1363L0.160945 16.1658L0.205102 16.161L0.234631 16.1284L0.280727 16.031L0.312971 15.9936L0.534915 15.8186L0.671539 15.744L0.707218 15.6964L0.656857 15.6491L0.71165 15.604L0.730765 15.5928L0.675694 15.5737L0.55619 15.6563L0.499901 15.6248L0.482781 15.5539L0.489707 15.4682L0.510261 15.3917L0.534804 15.3493L0.585388 15.2873L0.708382 15.0589L0.733424 15.0341L0.794423 14.9914L0.818245 14.9574L0.831154 14.9094L0.838579 14.825L0.852485 14.7911L0.816307 14.7476L0.81952 14.6765L0.837858 14.5945L0.846556 14.5181L0.834922 14.448L0.817802 14.3214L0.721125 14.2089L0.561453 13.9879L0.551037 13.9404L0.563946 13.885L0.59198 13.7982L0.429594 13.7264L0.374524 13.6559L0.406769 13.5459L0.382945 13.5212L0.329371 13.4804L0.301835 13.4672L0.232138 13.4688L0.208315 13.4591L0.21031 13.4173L0.224549 13.4031L0.263663 13.364L0.267873 13.2854L0.235906 13.2101L0.181334 13.168L0.189534 13.1334L0.229479 13.1049L0.327431 13.0874L0.373804 13.0675L0.423389 13.0304L0.45785 13.0119L0.555525 12.9855L0.633366 13.0064L0.689878 13.021L0.728549 13.0307L0.696304 12.9796L0.606773 12.885L0.577022 12.8622L0.65863 12.8177L0.735972 12.8545L0.813094 12.9174L0.894203 12.9509L0.969108 12.9343L0.988942 12.9367L1.00606 12.9534L1.0326 13.0013L1.04351 13.0147L1.13554 13.0288L1.17449 13.0516L1.18169 13.1123L1.27172 13.0871L1.28164 13.0482L1.26202 12.9604L1.41577 13.0062H1.46463L1.5043 12.9881L1.62231 12.8969L1.8611 12.8147L2.07345 12.8079L2.13844 12.7725L2.19423 12.7055L2.24903 12.6055L2.26864 12.5839L2.28698 12.5806L2.29911 12.5687L2.30133 12.521L2.2954 12.4947L2.28299 12.4758L2.22099 12.4098L2.06426 12.3215L2.01168 12.3059L1.97351 12.2787L1.96852 12.2191L1.98514 12.1784L2.00669 12.168L2.03196 12.1662L2.06071 12.1516L2.08005 12.1271L2.09966 12.0772L2.11229 12.0549L2.15296 12.0123L2.19141 11.9906L2.20509 11.9891L2.34687 11.973L2.37712 11.9452L2.43019 11.8362L2.47679 11.787L2.57967 11.7416L2.62754 11.6989L2.68383 11.6067L2.70959 11.5764L2.81624 11.5111L2.82294 11.4909L2.81691 11.4797L2.80283 11.4536L2.7815 11.3696L2.783 11.2976L2.80034 11.2382L2.84843 11.1258L2.86876 10.9822L2.83502 10.8809L2.68898 10.6419L2.67386 10.649L2.65901 10.6755L2.63668 10.6967L2.57668 10.7145L2.51369 10.7186L2.44598 10.7075L2.32199 10.6598L2.13207 10.6328L2.06886 10.6017L2.02149 10.5462L2.00686 10.4873L2.00337 10.4177L1.99495 10.3471L1.96542 10.285L2.00509 10.2815L2.13828 10.2137L2.05966 10.1467L2.04282 10.1212L2.04204 10.0883L2.05296 10.0555L2.05766 10.02L2.03755 9.97852L2.07905 9.94824L2.1221 9.9168L2.20243 9.89169L2.43008 9.88802L2.55729 9.92674L2.67557 9.90902L2.71175 9.92435L2.79729 9.9513L2.84095 9.86646L2.85857 9.72668L2.8809 9.29774L2.90173 9.16468L2.92616 9.09579L2.94467 9.04357L3.14157 8.73168L3.19365 8.59796L3.2157 8.47057L3.21941 8.32724L3.19708 8.04057L3.18816 8.00557L3.17653 7.98463L3.16733 7.95913L3.16561 7.91118L3.17154 7.87885L3.2055 7.79051L3.22185 7.72146L3.22927 7.6589L3.22678 7.59446L3.21985 7.48029L3.24345 7.46718L3.27077 7.43774L3.29187 7.40829L3.31337 7.36524L3.32157 7.31729L3.30362 7.2729L3.36412 7.18051L3.39675 7.16379L3.45238 7.16279L3.50429 7.17657L3.58706 7.22951L3.63238 7.24785L3.57476 7.16229L3.47969 7.12723L2.93336 7.10774L2.84472 7.06346L2.80959 6.95123L2.80882 6.65218L2.81934 6.58412L2.86583 6.4614L2.87635 6.40118L2.89624 6.36429L2.94328 6.36496L3.03996 6.38618L3.05287 6.35357L3.07569 6.34123L3.09309 6.30168L3.08877 6.25062L3.06749 6.22162L2.99741 6.18601L2.96616 6.15368L2.96106 6.1004L2.99503 6.05568L3.07237 6.0014L3.15946 5.90318L3.20633 5.87062L3.29537 5.77729L3.48479 5.7029L3.85383 5.6609L3.87959 5.67873L3.90518 5.71412L3.96203 5.72784L4.31583 5.65345L5.03574 5.55207L5.22765 5.60829V5.63857L5.21203 5.75262L5.27918 5.89979L5.37796 6.02784L5.45841 6.0844V6.10929L5.43813 6.16073L5.47525 6.17884L5.52838 6.19418L5.55531 6.23651L5.54788 6.30934L5.52522 6.34657L5.47325 6.3859L5.42993 6.40846L5.33541 6.41701L5.29325 6.44368L5.33696 6.5784L5.35901 6.62923L5.39165 6.6644L5.42212 6.64962L5.44943 6.63779L5.48965 6.63946L5.51774 6.6549L5.56345 6.70818L5.58062 6.71968L5.60018 6.73679L5.61968 6.77474L5.64489 6.81268L5.67946 6.8299L5.71969 6.82874L5.74899 6.82201L5.77476 6.80623L5.80423 6.77718L5.85481 6.6924L5.90833 6.55329L5.92124 6.41457L5.85171 6.33307L5.75742 6.35846L5.70705 6.3499L5.71176 6.29062L5.73226 6.22407L5.74944 6.0864L5.76977 6.02901L5.80179 5.99484L5.8424 5.97851L5.94257 5.97357L5.98844 5.99484L6.02396 6.04468L6.05327 6.10012L6.08257 6.13968L6.17942 6.18979L6.38424 6.23034L6.47699 6.27551V6.30551L6.41959 6.35523L6.36685 6.41979L6.32801 6.50701L6.31338 6.62446L6.3161 6.85118L6.33017 6.95096L6.36258 7.02512L6.36962 6.92535L6.34424 6.67323L6.34618 6.55401L6.38292 6.46618L6.43798 6.42701L6.48796 6.37829L6.50984 6.26301L6.49793 6.24273L6.43643 6.08446L6.41809 6.06068L6.39311 6.00573L6.372 5.94501L6.35499 5.86773L6.32103 5.7754L6.31344 5.70779L6.3187 5.63934L6.33333 5.57945L6.42314 5.35351L6.4868 5.10801L6.52779 4.99918L6.56214 4.94706L6.60901 4.90173L6.66214 4.86968L6.71644 4.85706L6.76641 4.86073L6.79489 4.87334L6.85384 4.94079L6.93894 5.01351L7.02974 5.06112L7.21739 5.1079L7.32028 5.1049L7.49463 5.06129L7.5907 5.06906L7.63563 5.01579L7.82638 4.96862L8.01619 4.97045L8.05719 4.94073L8.08982 4.96545L8.12927 4.97262L8.21071 4.96862L8.2316 4.9829L8.28434 5.05262L8.51787 5.46857L8.61432 5.5829L8.68169 5.63846L8.71471 5.68129L8.74751 5.80407L8.91228 6.04857L8.94895 6.08223L8.9935 6.10234L9.05073 6.10929L9.08059 6.12396L9.22314 6.22268L9.38481 6.25896L9.51678 6.28862L9.54803 6.27546L9.51817 6.22273L9.42814 6.16968L9.21295 6.14462L9.12508 6.10934L8.95211 5.99651L8.87322 5.90673L8.84507 5.77723L8.83804 5.66651L8.82868 5.59573L8.80469 5.57357L8.692 5.51034L8.65587 5.49712L8.59731 5.44318L8.54125 5.32079L8.50335 5.18934L8.4998 5.1079L8.41232 5.07307L8.2608 4.94112L8.17021 4.88534L8.08057 4.86406L7.7758 4.85706L7.68461 4.81451L7.6235 4.79723L7.59557 4.81518L7.57036 4.85706L7.51474 4.83845L7.43042 4.77362L7.35019 4.67356L7.1518 4.26829L7.24415 4.22529L7.28925 4.22179L7.34665 4.23779L7.44094 4.30162L7.49247 4.31895L7.54499 4.29379L7.56333 4.24895L7.58283 4.16773L7.59613 4.07979L7.59552 4.01634L7.5676 3.97429L7.52311 3.9344L7.49031 3.89245L7.49712 3.84567V3.82012L7.43856 3.80206L7.35479 3.81762L7.27667 3.85573L7.23352 3.90434H7.21734L7.15174 3.78956L7.10936 3.69728L7.10254 3.67723L7.12205 3.5949L7.15878 3.5239L7.18376 3.45895L7.16675 3.39645V3.36828L7.19623 3.34567L7.29778 3.31617L7.33917 3.31217L7.36454 3.29139L7.40166 3.24006L7.43917 3.17467L7.46322 3.11256L7.40837 3.12328L7.31795 3.20228L7.26642 3.22528L7.27113 3.21151L7.27795 3.18217L7.28282 3.16889L7.20997 3.17762L7.08481 3.21634L7.01102 3.22523L6.92531 3.21028L6.88819 3.22523L6.80835 3.30267L6.78026 3.31206L6.71644 3.28878L6.64807 3.2259L6.59849 3.13528L6.59167 3.02801L6.62563 2.98551L6.69123 2.95545L6.76486 2.94051L6.82126 2.94334V2.91512L6.7781 2.90489L6.74508 2.87328L6.71345 2.86317L6.67539 2.91512L6.65489 2.86973L6.66192 2.82317L6.6842 2.77995L6.70819 2.74578L6.75932 2.76884L6.95379 2.71517H7.21739L7.27834 2.69867L7.32909 2.66673L7.43042 2.5765L7.523 2.53056L7.563 2.49973L7.57923 2.4325L7.57939 2.33223L7.51829 2.23712L7.32244 2.02406L7.29451 1.97995L7.28282 1.93584L7.26077 1.91656L7.21135 1.91806L7.16077 1.93245L7.13385 1.95139L7.11745 1.92028L7.19966 1.8635L7.11589 1.63745L7.08487 1.57956L7.01595 1.53623L6.88631 1.4215L6.80486 1.38084V1.35222L6.81833 1.27689L6.78708 1.19206L6.74043 1.1085L6.70824 1.0365L6.69456 0.926557L6.7053 0.829613L6.73782 0.708612L6.82204 0.735057L6.91057 0.738946L7.07396 0.677112L7.13002 0.668446L7.32172 0.701724L7.5102 0.779557L8.01902 0.900557L8.05918 0.936391L8.0701 0.978502L8.0773 1.03678L8.09492 1.08639L8.1373 1.10367L8.31238 1.10434L8.34833 1.09767L8.37166 1.07328L8.4059 1.06378L8.43216 1.04006L8.47554 1.03011L8.5239 1.07606L8.56457 1.08078L8.60003 1.06872L8.60141 1.06761L8.63482 1.06778L8.77776 0.994891L8.82325 0.93778L8.88181 0.914335L8.91189 0.859724L8.94314 0.834224L8.95095 0.984724L9.06713 1.02806L9.21456 1.03589L9.31434 1.08056L9.35633 1.11267L9.41861 1.13967L9.47545 1.18039L9.50044 1.25267L9.52819 1.2915L9.59085 1.28067L9.7 1.23839L9.69063 1.15167L9.74726 1.14778L9.82515 1.1965L9.88022 1.26695L9.91302 1.40922L9.92826 1.44245L9.94992 1.47395L9.99485 1.52273L9.96399 1.54661L9.93236 1.54256L9.90266 1.52884L9.88022 1.52273L9.88161 1.53189L9.82227 1.57934L9.81463 1.57967L9.79922 1.59034L9.78886 1.58934L9.78299 1.59828L9.78183 1.63656L9.81695 1.63895L9.87961 1.61984L9.94227 1.61628L9.9784 1.66506L10.0042 1.64273L10.0315 1.64073L10.0448 1.66611L10.0276 1.7245L10.0397 1.78217L10.0413 1.8645L10.0276 2.03634L10.0155 2.10995L9.99906 2.1685L9.97602 2.21628L9.94576 2.2605L9.86842 2.333L9.7718 2.38712L9.66792 2.42134L9.56736 2.43262V2.46089L9.67102 2.51545L10.2501 2.37612L10.2951 2.39228L10.4401 2.52L10.3923 2.56817L10.3921 2.61345L10.411 2.66412L10.4237 2.73056L10.4099 2.78589L10.3759 2.83734L10.3326 2.87434L10.2912 2.88695L10.2975 2.89617L10.3057 2.90323L10.3068 2.91617L10.2912 2.94339L10.317 2.97145L10.3242 3.00606L10.3148 3.04501L10.2912 3.08445L10.3439 3.06478L10.3838 3.01545L10.4402 2.88695L10.472 2.74995L10.4894 2.71528L10.5134 2.69912L10.604 2.68934L10.6368 2.67L10.6528 2.64762L10.6651 2.62456L10.6874 2.60234L10.7149 2.59323L10.8169 2.60234L10.8696 2.62862L11.0149 2.74589L11.3933 2.91517L11.6071 3.11817L11.7057 3.14301L11.8156 3.12267L11.8964 3.07217L12.0335 2.94339L12.1126 2.89201L12.1952 2.85689L12.3955 2.83067V2.85873L12.3524 2.86089L12.2924 2.86156L12.334 2.88039L12.3756 2.86662L12.4319 2.90612L12.6003 2.80173L12.6755 2.83067L12.5865 2.93134L12.5609 2.97167L12.5467 2.95973L12.5101 2.94345L12.5361 3.01095L12.5582 3.17512L12.5771 3.25312L12.5593 3.30506L12.5609 3.37512L12.5771 3.49373L12.5668 3.56406L12.5437 3.60156L12.5207 3.62751L12.5101 3.66317L12.2315 3.84573L12.1353 3.97001L12.0933 3.9974L11.9963 4.03112L11.9776 4.03045L11.9572 4.04879L11.941 4.03712L11.924 4.01856L11.9025 4.0164L11.8835 4.02873L11.874 4.03956L11.7814 4.18473L11.7568 4.21223V4.23773L11.7886 4.31773L11.8236 4.37673L11.8697 4.41523L11.9351 4.43623L12.0279 4.42656L12.0517 4.43623L12.0687 4.47867L12.071 4.52745L12.0802 4.56506L12.1156 4.57556L12.1249 4.57623L12.1529 4.57806L12.1648 4.57556L12.1954 4.55145L12.2657 4.47723L12.3053 4.46156L12.351 4.4519L12.4787 4.38279L12.7704 4.34379L12.7915 4.35195L12.8081 4.37529L12.8237 4.4329L12.8407 4.46156L12.9261 4.48523L12.9391 4.50584L12.928 4.59901L12.9333 4.64162L12.9637 4.6594L13.0352 4.66423L13.0551 4.6594L13.1521 4.57556L13.1704 4.58806L13.195 4.64595L13.2099 4.6594H13.3098L13.311 4.67223L13.403 4.78912L13.4211 4.80123H13.4484L13.4516 4.75818L13.4758 4.69251L13.4943 4.61101L13.4838 4.54512L13.5016 4.51518L13.5248 4.49684L13.5449 4.49184L13.5402 4.47351L13.5343 4.42723L13.53 4.4079L13.612 4.32429V4.29379H13.5956V4.26829L13.6569 4.29395L13.6776 4.29379L13.7263 4.25762L13.7691 4.14873L13.8013 4.12573L13.8206 4.1189L13.8364 4.1009L13.8487 4.07484L13.8592 4.04445L13.8608 4.02406L13.8428 4.00956V3.98851L13.8504 3.96745L13.8604 3.9534L13.8693 3.9424L13.9287 3.83428L14.005 3.78095L14.0988 3.7674L14.2991 3.80317L14.871 3.67945L14.961 3.62123L14.9733 3.73901L14.9643 3.85317L14.9694 3.95023L15.0254 4.01634L15.0022 3.96656L14.9903 3.86001L14.9776 3.82006L15.0026 3.77206L15.0718 3.73262L15.0923 3.67706L15.0653 3.6744L15.0396 3.67906L15.015 3.68962L14.9927 3.70517L15.0109 3.66667L15.0923 3.55906L15.141 3.51484L15.198 3.4184L15.2318 3.39628L15.2632 3.38706L15.4439 3.28767L15.5349 3.21073L15.5704 3.16878L15.6569 2.99973L15.8012 2.78951L15.8168 2.74967L15.9158 2.5765L15.9539 2.46789L15.9814 2.432L16.0304 2.40706V2.4325H16.014L16.0652 2.51556L16.1687 2.55834H16.7148L16.8048 2.60228L16.86 2.57045L16.929 2.58762L16.9596 2.63373L16.9 2.68923L16.8387 2.70267L16.5818 2.68045L16.4793 2.64156L16.416 2.633L16.3973 2.64139L16.3717 2.67889L16.358 2.68917H16.3092L16.2471 2.67739L16.2239 2.69051L16.2092 2.74567L16.1944 2.71506L16.1817 2.72278L16.1604 2.74128L16.1452 2.74567L16.1495 2.78101L16.1595 2.79684L16.1747 2.80206L16.1944 2.80489L16.1859 2.80706L16.1792 2.80723L16.1757 2.81262L16.1765 2.83045L16.1304 2.80523L16.0789 2.81012L16.0355 2.83939L16.014 2.88678L15.975 2.83717L15.9276 2.81312L15.8407 2.80489L15.8016 2.82373L15.7692 2.87162L15.7536 2.93462L15.7669 2.99962L15.7325 2.99256L15.7185 2.98651L15.7015 2.97139L15.6851 2.99962L15.7009 3.04901L15.6892 3.09784L15.6591 3.13362L15.6195 3.14284L15.6365 3.19906L15.6564 3.24317L15.6616 3.27939L15.6345 3.3119L15.7391 3.38512L15.7975 3.40034L15.8489 3.36801L15.8116 3.36951L15.7833 3.35545L15.7341 3.3119L15.7497 3.26345L15.7724 3.22773L15.8327 3.16867L15.8468 3.15895L15.8732 3.15056L15.8831 3.14284L15.8908 3.12251L15.8931 3.07028L15.8982 3.05351L15.9388 3.01873L16.0946 2.94317L16.0622 2.91878L16.0472 2.91489V2.88667L16.0917 2.87006L16.1078 2.87156L16.1273 2.88667V2.85845L16.1722 2.89878L16.2437 2.87978L16.3745 2.80478L16.3692 2.79101L16.3628 2.75973L16.3581 2.74562L16.3831 2.72712L16.4112 2.71567L16.4406 2.71162L16.4711 2.71501V2.74562L16.435 2.75506L16.4108 2.78784L16.3967 2.83506L16.3908 2.88667L16.4209 2.83423L16.4318 2.80651L16.44 2.77373L16.4615 2.81306L16.4861 2.84956L16.5131 2.86234L16.5396 2.83039L16.5677 2.85562L16.5934 2.85445L16.6169 2.83512L16.638 2.80484L16.6446 2.83678L16.6562 2.86651L16.6712 2.89289L16.7122 2.94567L16.7212 2.95323L16.7297 2.94867L16.754 2.94312L16.8 2.94612L16.8243 2.93906L16.8512 2.91484L16.8717 2.88156L16.8965 2.81451L16.918 2.77367L16.9793 2.71262L17.0746 2.6505L17.1699 2.61467L17.2309 2.63284L17.2004 2.66262L17.1992 2.71189L17.2174 2.76439L17.2457 2.80473L17.3496 2.85884L17.3781 2.88656L17.3328 2.96806L17.3426 3.03156L17.4109 3.14267L17.4177 3.18762V3.23223L17.4245 3.26712L17.451 3.28123H17.5582V3.31173L17.5358 3.3124L17.5198 3.31945L17.4929 3.33723L17.5714 3.32967L17.6967 3.40156L17.7803 3.42167L17.8418 3.45551L17.9208 3.61906L17.9859 3.67678L17.9486 3.7034L17.9203 3.73301L17.9802 3.73251L18.0697 3.68651L18.1169 3.7049L18.0982 3.75306L18.0867 3.77212L18.0677 3.78917L18.096 3.80656L18.1136 3.79673L18.1294 3.78317L18.151 3.78917L18.1641 3.8099L18.1989 3.90395L18.2293 3.96456L18.2647 4.01367L18.309 4.04306L18.3654 4.04406V4.01601L18.3457 3.99712L18.3184 3.95017L18.2986 3.93195V3.9039L18.5948 3.84523L18.6659 3.81212L18.7885 3.72784L18.8568 3.70478L18.8677 3.72617L18.8634 3.74423L18.848 3.75728L18.824 3.76362V3.78901L18.8972 3.82712L19.0876 3.98801V4.0159L19.053 4.07617L19.0333 4.15529L19.0038 4.22734L18.9388 4.26784L18.9677 4.29017L19.0372 4.37984L19.0624 4.42151L19.0765 4.43218L19.1444 4.46118L19.1608 4.47317L19.1716 4.50079L19.179 4.53073L19.186 4.54973L19.1887 4.5644L19.1856 4.58306L19.1849 4.59901L19.1942 4.60601L19.2286 4.60268L19.2364 4.60601L19.2493 4.61668L19.2639 4.62568L19.2792 4.63168L19.2926 4.63368L19.3225 4.65012L19.3262 4.68906L19.3113 4.73495L19.2844 4.77334L19.1126 4.9159L19.0876 4.96834L19.1091 5.01812L19.154 5.04034L19.1985 5.05079L19.2188 5.06573L19.2341 5.11034L19.2692 5.16173L19.3079 5.19657L19.3336 5.19107L19.5101 5.33973L19.5896 5.35795L19.6284 5.40679L19.6378 5.4159L19.6956 5.41129L19.7131 5.4159L19.7735 5.45234L19.8026 5.4644L19.9955 5.47879L20.063 5.45829L20.0915 5.40201L20.1097 5.38945L20.1482 5.3969L20.1825 5.43084L20.1895 5.49673L20.1706 5.52701L20.0583 5.6079L20.0886 5.62545L20.1237 5.63768L20.1626 5.64295L20.1811 5.64084L20.1839 5.75546L20.174 5.81862L20.2102 5.89812L20.2606 6.05573L20.2651 6.09573L20.2586 6.24396L20.2603 6.33368L20.2777 6.41712L20.336 6.50785L20.361 6.59224L20.4114 6.67762L20.4364 6.88662L20.4867 7.12157L20.5029 7.19729L20.5066 7.2314L20.5081 7.3044L20.5155 7.3439L20.5302 7.36946L20.5668 7.40074L20.5763 7.42318L20.6075 7.45229L20.545 7.57629L20.5274 7.60279L20.5021 7.61651L20.4783 7.65235L20.4612 7.7014L20.4545 7.75485L20.4632 7.82007L20.4776 7.8769L20.4826 7.9349L20.4107 8.16174L20.404 8.19524L20.3717 8.26752L20.2981 8.34513L20.1567 8.45846L20.0107 8.53529L19.8946 8.62213V8.64702L19.909 8.68713L19.9383 8.82868L19.9437 8.87857L19.9338 8.95396L19.909 9.00224L19.8453 9.05796L19.8728 9.11396L19.9145 9.14691L19.9648 9.16274L20.0181 9.16663L20.0662 9.18802L20.1446 9.28118L20.21 9.31646L20.4649 9.50557L20.5021 9.54941L20.5842 9.71235L20.6093 9.73668L20.6549 9.75813L20.7238 9.85302L20.8673 9.9103L21.0066 10.0677L21.0204 10.0834L21.095 10.1451L21.0278 10.2871L21.0092 10.379L21.0538 10.4201L21.065 10.4622L21.0253 10.5549L20.9673 10.6476L20.8431 10.7579L20.8565 10.9145L20.9135 11.0864L20.9639 11.2009L20.9494 11.2725L21.0032 11.3334L21.0846 11.3754L21.1528 11.3914L21.22 11.4209L21.2572 11.49L21.2564 11.5704L21.2096 11.6326V11.657L21.2443 11.7116L21.2351 11.7677L21.2093 11.839L21.1947 11.9407L21.2187 11.9969L21.3747 12.1144L21.3305 12.1697L21.3122 12.203L21.3045 12.2381L21.3 12.274L21.2898 12.311L21.238 12.4056L21.2251 12.4436L21.2167 12.682L21.1963 12.7582L21.1594 12.8285L21.1152 12.888L20.9776 13.029L20.9461 13.0965L20.9533 13.1789L20.9928 13.2395L21.0362 13.2697L21.0694 13.3146L21.0788 13.4171L21.1036 13.5159L21.1577 13.5796L21.2743 13.6772L21.3052 13.7442L21.3288 13.8426L21.3328 13.9446L21.3045 14.0222L21.2579 14.0965L21.2383 14.1717L21.2436 14.1994L21.2514 14.2404L21.3045 14.2961L21.4613 14.3491L21.5118 14.3855L21.5666 14.4174L21.6792 14.451L21.7335 14.4771L21.771 14.5067L21.8153 14.5536L21.8401 14.6067L21.8198 14.655L21.8287 14.7567L21.843 14.9201V14.9237L21.8535 14.9927L21.8602 15.0193L21.9045 15.0978L21.9588 15.1621L21.9938 15.2376L21.9814 15.3491L21.9901 15.361L22 15.3718L21.9588 15.453L21.9264 15.5553L21.9068 15.663L21.904 15.7599L21.8991 15.8091L21.8832 15.8346L21.8646 15.8524L21.8517 15.8789L21.8475 15.9166L21.847 15.9903L21.8398 16.0342L21.7327 16.3073L21.6117 16.5968L21.5264 16.6923L21.4924 16.7486L21.4922 16.8195L21.4542 16.9217L21.4314 16.9658L21.4081 16.9928L21.3694 17.0034L21.3173 17.0014L21.2283 16.9814L21.1365 16.9113L21.1023 16.8922L21.019 16.8686L21.0073 16.84L21.0158 16.7719L21.0564 16.6759L21.0703 16.6253L21.0574 16.5821L21.0284 16.5815L20.8958 16.6369L20.8682 16.615L20.8814 16.5684L20.9101 16.5136L20.9287 16.4676L20.9332 16.4101L20.9258 16.3728L20.9075 16.3426L20.8784 16.3073L20.8489 16.2839L20.7842 16.2675L20.7544 16.2466L20.7319 16.2153L20.7237 16.1923L20.7185 16.1693L20.7046 16.1368L20.6837 16.1897L20.6565 16.2039L20.5694 16.199L20.5022 16.2289L20.4757 16.2283L20.4497 16.2141L20.434 16.1933L20.4214 16.172L20.4033 16.1554L20.314 16.126L20.2376 16.1382L20.1801 16.1971L20.1464 16.3071L20.1196 16.346L20.1477 16.3646L20.2288 16.3753L20.2766 16.3948L20.2729 16.4025L20.2526 16.4168L20.2504 16.4568L20.3116 16.5178L20.4001 16.544L20.4641 16.5813L20.4497 16.6764L20.3793 16.7365L20.1911 16.7215L20.1048 16.7396L20.0787 16.7654L20.0349 16.832L20.0056 16.8595L19.6317 17.0321L19.5856 17.0353L19.4978 17.0239L19.451 17.0341L19.4251 17.0526L19.3885 17.0999L19.3639 17.1184L19.3337 17.1229L19.3104 17.1158L19.29 17.1166L19.268 17.1439L19.2578 17.1809L19.2608 17.2131L19.2665 17.2398L19.2653 17.2599L19.2489 17.2834L19.235 17.2883L19.2204 17.2887L19.151 17.3323L19.1078 17.3411L18.9977 17.3288L18.9459 17.334L18.8547 17.368L18.8084 17.3773L18.5929 17.3761L18.4841 17.3967L18.3859 17.4564L18.4137 17.5146L18.4042 17.5658L18.3723 17.6074L18.3323 17.6378L18.3462 17.6681L18.344 17.6911L18.3296 17.7089L18.3058 17.7224L18.2641 17.7748L18.2235 17.812L18.1788 17.8231L18.1252 17.7967L18.1094 17.7767L18.0756 17.7197L18.0627 17.705L18.0335 17.6942L18.0268 17.6989L18.0253 17.7126L18.0109 17.7283L17.9208 17.7926L17.9074 17.8167L17.8819 17.8935L17.8315 17.9193L17.7916 17.9015L17.7526 17.8741L17.7061 17.8698L17.6262 18.0844L17.5918 18.1472L17.5328 18.1916L17.4063 18.1841L17.3386 18.2076L17.3378 18.208L17.316 18.214L17.2934 18.2158L17.2711 18.2139L17.25 18.2076L17.2314 18.1935L17.2116 18.1893L17.1915 18.1941L17.1716 18.208L17.156 18.3621L17.1404 18.431L17.1064 18.4714L17.0541 18.5233L17.0347 18.5425L16.9527 18.5378L16.7305 18.4018L16.7105 18.3958L16.6889 18.4003L16.6552 18.4227L16.6403 18.4285L16.5974 18.4225L16.559 18.4248L16.5198 18.439L16.4891 18.4697L16.436 18.5524L16.4092 18.5784L16.378 18.5819L16.2498 18.5585L16.0703 18.5719L15.9735 18.6006L15.9071 18.6579L15.8893 18.6735L15.8809 18.6923L15.8759 18.7114L15.8694 18.7283L15.8699 18.7361L15.8732 18.7488L15.8747 18.7636L15.8694 18.7774L15.8597 18.7827L15.8382 18.7819L15.8295 18.787L15.801 18.8127L15.7305 18.8524L15.7048 18.8781L15.6304 19.0142L15.6031 19.043L15.5764 19.0619L15.5568 19.0913L15.5503 19.1509L15.503 19.212L15.49 19.2474L15.4826 19.3142L15.4898 19.3608L15.5037 19.401V19.4344L15.4703 19.4588L15.4294 19.4536L15.4051 19.4155L15.3763 19.312L15.3738 19.2926L15.3696 19.2706L15.3597 19.2461L15.3493 19.232L15.3074 19.1894L15.3012 19.1807L15.2987 19.1724L15.3009 19.1648L15.3073 19.1576L15.3103 19.1549L15.3135 19.1528L15.3167 19.1516L15.3205 19.1511L15.3311 19.1299L15.3323 19.1126L15.3244 19.099L15.3073 19.0894L15.2383 19.0877L15.2034 19.0768L15.1766 19.0531L15.1672 19.0237L15.1679 18.9591L15.1538 18.9243L15.1077 18.8914L14.9926 18.8828L14.9322 18.8783L14.9875 18.9363L15.0068 18.9698L15.0157 19.0235L15.0113 19.0718L14.9951 19.0893L14.9704 19.1056L14.9403 19.1511L14.9652 19.1958L15.0837 19.2703L15.1424 19.3351L15.1695 19.3771L15.1878 19.4218L15.1947 19.4783L15.1779 19.5636L15.1794 19.6198L15.2002 19.6766L15.2342 19.7078L15.2726 19.7301L15.3074 19.7603L15.3287 19.7973L15.3337 19.8356L15.3342 19.8698L15.3419 19.8936L15.7049 20.089H15.7074L15.7441 20.1254L15.8323 20.1346L15.8728 20.1733L15.879 20.228L15.8624 20.2784L15.8596 20.319L15.9578 20.3769L15.9921 20.3903L16.0069 20.4173L15.9995 20.4898L15.9801 20.5469L15.9248 20.6497L15.9072 20.7073L15.8591 20.6925L15.8445 20.7451L15.8433 20.8233L15.8356 20.8845L15.7974 20.9234L15.6982 20.9658L15.67 21.0218L15.6819 21.061L15.7067 21.1086L15.7563 21.1804L15.7908 21.2117L15.8274 21.2369L15.9073 21.2753L15.9405 21.2928L15.9604 21.3322L15.9621 21.3815L15.9417 21.427L15.948 21.432L15.9671 21.4414L15.9557 21.4706L15.9539 21.4796L15.9785 21.5095L16.0358 21.5412L16.061 21.5692L16.0779 21.6095L16.089 21.6917L16.0986 21.7352L16.114 21.7797L16.1291 21.8128L16.148 21.8405L16.174 21.8679L16.201 21.8762L16.2263 21.8725L16.2441 21.8871L16.2473 21.9495L16.2543 22.071L16.2662 22.131L16.2934 22.1846L16.3403 22.2238L16.4509 22.2761L16.4993 22.3263L16.5779 22.5033L16.6158 22.5428L16.6634 22.5602L16.8048 22.5809L16.8496 22.5748L16.8389 22.5273L16.8719 22.5168L16.9637 22.5422L17.0043 22.5642L17.0391 22.5924L17.1065 22.6643L17.1481 22.6816L17.1616 22.7117L17.1648 22.7473L17.1757 22.7816L17.2523 22.8732L17.2826 22.8907L17.5072 23.1976L17.5387 23.27L17.5769 23.3317L17.6448 23.3716L17.7899 23.3784L17.838 23.397L17.8672 23.4225L17.9401 23.5206L18.042 23.6249L18.0688 23.6888L18.0703 23.7917L18.1047 23.848L18.1737 23.9129L18.2496 23.9677L18.3056 23.9947L18.3304 23.9309L18.3532 23.8906L18.3865 23.8753L18.4019 23.8785L18.4415 23.887L18.4836 23.9129L18.5243 23.9457L18.5652 23.9684L18.6088 23.9635L18.6148 24.0328L18.6403 24.0994L18.6778 24.1565L18.7186 24.1975L18.764 24.219L18.8534 24.2332L18.8871 24.2521L18.9429 24.3396L19.0587 24.5718L19.1058 24.6212ZM20.0519 4.66923L20.0111 4.77945L19.9913 4.79318L19.9685 4.79995L20.0104 4.85184L20.0297 4.91556L19.7576 4.94712L19.7041 4.93918L19.6639 4.91062L19.608 4.97406L19.5379 5.01523L19.4003 5.05223L19.2486 5.05473L19.1642 5.02934L19.1203 4.96879L19.1513 4.95718L19.2011 4.91884L19.2784 4.9019L19.3616 4.85356L19.3839 4.82929L19.4014 4.71129L19.3124 4.54129L19.3187 4.4364L19.4396 4.4439L19.4823 4.46173L19.4659 4.49201L19.4718 4.51479L19.4527 4.59468L19.4496 4.65956L19.4871 4.59218L19.5179 4.57556L19.6148 4.57573L19.6023 4.58556L19.5925 4.59623L19.5861 4.61118L19.5824 4.63412L19.664 4.65956L19.6447 4.60651L19.6753 4.50601L19.671 4.39695L19.6378 4.32884L19.5823 4.35217L19.5628 4.28551L19.5367 4.23051L19.504 4.18701L19.466 4.15651L19.4186 4.14501L19.3707 4.15551L19.3461 4.18684L19.3676 4.23801V4.26851L19.3471 4.28001L19.3255 4.30517L19.3079 4.33701L19.3009 4.36751L19.2863 4.37618L19.2025 4.40817L19.2076 4.35317L19.2255 4.31917L19.2446 4.29501L19.2513 4.26851L19.2388 4.21851L19.2208 4.21301L19.2001 4.22801L19.1234 4.26251L19.088 4.31001L19.0542 4.34351L19.006 4.32451L19.0251 4.24517L19.0903 4.11006L19.104 4.00273L19.0829 3.93962L18.9849 3.83584L18.9552 3.78973L18.9775 3.74323L19.0144 3.70395L19.0589 3.6864L19.104 3.70545L19.1251 3.74523L19.174 3.87945L19.2024 3.93256L19.2661 3.99784L19.4243 4.09084L19.5148 4.1259L19.5879 4.17195L20.0096 4.63818L20.0506 4.66879L20.0519 4.66923ZM2.26892 6.02896L2.21501 6.0369L2.13163 6.07351L2.0873 6.0844V6.10929L2.11406 6.11984L2.13478 6.13468L2.15235 6.15873L2.16914 6.19729L2.14764 6.18473L2.11661 6.14746L2.09611 6.13951L2.0719 6.14379L2.03639 6.16257L2.02176 6.16718L1.9786 6.14557L1.94558 6.09807L1.93639 6.0504L1.96431 6.02879L2.14708 5.97234L2.23673 5.9654L2.26892 6.02896ZM2.45053 5.75173L2.53939 5.70745L2.86621 5.66479L2.95835 5.6939L2.45053 5.75173ZM3.07276 5.60823L3.18268 5.54323L3.31215 5.5214L3.58396 5.52734L3.58512 5.54668L3.58125 5.55129L3.5746 5.55112L3.4629 5.59629L3.16982 5.63534L3.07276 5.60823ZM3.63277 5.52734L3.67238 5.4994L3.72136 5.49179L3.76723 5.50207L3.79826 5.5274L3.79061 5.54329L3.78258 5.54973L3.76385 5.55518L3.66778 5.52523L3.63277 5.52734ZM5.44079 5.55512L5.47087 5.50268L5.51813 5.48184L5.57204 5.49062L5.62279 5.52734H5.58844L5.56461 5.53712L5.52633 5.57451L5.51458 5.58295L5.49386 5.57751L5.48057 5.56807L5.46611 5.56607L5.44073 5.58295L5.44079 5.55512ZM3.99477 5.38845L4.20874 5.38645L4.25699 5.41623L4.25816 5.43395L4.25467 5.4379L4.24879 5.43773L4.24237 5.4414L4.06741 5.43595L3.98641 5.45601L3.97998 5.52734L3.90967 5.53079L3.88818 5.51145L3.87998 5.45668L3.89211 5.41001L3.92181 5.39129L3.99477 5.38845ZM4.33899 5.38845L4.39993 5.31162L4.50066 5.2889L4.70354 5.30284V5.33051H4.66936L4.61567 5.36462L4.54852 5.39329L4.4796 5.39745L4.42082 5.35834L4.39894 5.38979L4.37783 5.40601L4.35749 5.40568L4.33899 5.38845ZM4.84975 5.33045L4.80349 5.29701L4.81401 5.27118L4.85679 5.25512L4.90698 5.24934L4.94643 5.25318L4.98216 5.26462L5.04599 5.3039L5.02316 5.29945L4.9974 5.30295L4.89645 5.27923L4.8533 5.28157L4.84975 5.33045ZM13.2515 4.49184L13.2869 4.39879L13.3738 4.32362L13.4732 4.29079L13.5448 4.32429L13.4737 4.53745L13.4483 4.57556L13.4186 4.57656L13.4167 4.54812L13.4333 4.47673L13.4228 4.42929L13.4029 4.42879L13.3898 4.46356L13.4006 4.51984L13.3655 4.54962L13.327 4.54762L13.2883 4.52417L13.2515 4.49184ZM13.6182 4.10984L13.6184 4.10017L13.6313 4.06979L13.7944 3.99067L13.828 3.95795L13.7873 4.01573L13.6764 4.11817L13.6448 4.18423H13.6313L13.6182 4.10984ZM7.46338 2.26045L7.45225 2.2655L7.44698 2.278L7.44582 2.29656L7.44837 2.3195L7.40421 2.36234L7.37374 2.41339L7.339 2.46006L7.28299 2.48923L7.17872 2.49734L7.1293 2.47928L7.10276 2.43262L7.12892 2.41845L7.13324 2.395L7.12232 2.36989L7.10282 2.3505L7.17878 2.27684L7.2631 2.23789L7.358 2.23234L7.46338 2.26045ZM12.9636 2.44678L13.1041 2.71528L12.8024 2.66412L12.7585 2.68934L12.7693 2.70617L12.7798 2.71356L12.6833 2.71995L12.6205 2.70934L12.5933 2.67517L12.598 2.591L12.5869 2.55867L12.5525 2.54573L12.4896 2.54373L12.4639 2.55195L12.4459 2.5765H12.4281L12.4201 2.54617L12.4119 2.529L12.399 2.52834L12.3705 2.54617L12.3639 2.48906L12.431 2.32173L12.5252 2.22912L12.6411 2.20939L12.8457 2.29845L12.9071 2.35156L12.926 2.37684L12.9636 2.44678ZM17.4928 1.9515L17.434 2.00017L17.4201 2.06806L17.4178 2.14845L17.3947 2.2345L17.3772 2.25762L17.3432 2.28745L17.3288 2.3195L17.3202 2.35995L17.3157 2.40139L17.3124 2.48917H17.296V2.43256L17.3028 2.33734L17.378 2.065L17.3941 1.95995L17.4117 1.93089L17.4509 1.92039L17.4841 1.91873L17.511 1.92328L17.5259 1.94761L17.5255 1.99373L17.5241 1.98917L17.5173 1.98056L17.5077 1.97956V2.03634H17.4927L17.4928 1.9515ZM18.824 2.80512L18.8878 2.92278L18.9288 2.97689L18.9876 2.99989L18.9556 3.02306L18.9243 3.06217L18.9005 3.11573L18.8911 3.18301V3.2484L18.8837 3.27423L18.8587 3.27173L18.8064 3.25312H18.8345L18.8568 3.24056L18.8665 3.21289L18.8568 3.16895H18.8404L18.8158 3.19578L18.7789 3.20989L18.7402 3.2104L18.7109 3.19678V3.16889L18.7999 3.13028L18.8368 3.10073L18.8567 3.05373L18.7319 3.06228L18.6763 3.07989L18.6289 3.11245L18.7613 3.01878L18.8064 2.99978V2.97156L18.7419 2.96534L18.7083 2.96867L18.6849 2.98562L18.6525 3.02373L18.6322 3.01434L18.6136 2.98712L18.5865 2.97151L18.3475 2.99973L18.3045 3.02712L18.1776 3.13995L18.1508 3.18289L18.1229 3.24595L18.0641 3.25834L18.0114 3.28617L18.002 3.39628L18.0348 3.36812L18.0354 3.34717L18.0303 3.34178L18.0236 3.34145L18.0197 3.33745L18.1344 3.31734L18.1508 3.3249L18.1683 3.4189L18.1635 3.46212L18.1256 3.48073L18.057 3.46984L17.9811 3.44273L17.896 3.38645L17.9151 3.36467L17.928 3.31606L17.9528 3.25301L17.9177 3.27412L17.9019 3.29056L17.8873 3.31201L17.8969 3.3234L17.9037 3.33751L17.8556 3.33301L17.8304 3.33817L17.8129 3.35289L17.7914 3.36428L17.7675 3.34801L17.7455 3.32406L17.7303 3.31201L17.6951 3.30528L17.6528 3.28467L17.6266 3.24928L17.6401 3.19662L17.6051 3.18606L17.5317 3.22228L17.5077 3.22512L17.4913 3.19323L17.5059 3.16539L17.538 3.15334L17.5745 3.16878V3.14295L17.4257 3.02795L17.4587 2.93928L17.506 2.86617L17.5669 2.83845L17.6402 2.88684L17.6566 2.85862L17.6845 2.88584L17.7177 2.87978L17.7889 2.83051L17.7513 2.82628L17.7227 2.79856L17.711 2.75823L17.7222 2.71517V2.68928L17.6894 2.68612L17.6716 2.66612L17.6564 2.64373L17.6319 2.63312L17.5253 2.66139L17.5669 2.57523L17.5849 2.553L17.6497 2.53684L17.7221 2.49828L17.7713 2.48917V2.46089L17.7743 2.46006L17.7889 2.45178L17.8039 2.43256L17.7373 2.40678L17.7082 2.38723L17.6893 2.3505L17.6975 2.34073L17.7051 2.33367L17.7092 2.32034L17.707 2.29117L17.6363 2.31934L17.5934 2.32423L17.5744 2.30534L17.5691 2.29217L17.558 2.28895L17.5469 2.27934L17.5416 2.24745L17.5387 2.2115L17.5297 2.18989L17.5141 2.18045L17.4926 2.18062L17.5477 2.15378L17.7314 2.12645L17.7712 2.13556L17.7841 2.16039L17.812 2.17167L17.8401 2.19295L17.853 2.24745L17.8632 2.27695L17.8815 2.26145L17.8905 2.21423L17.8708 2.14978L17.9053 2.10167L17.949 2.05556L17.9944 2.02078L18.0348 2.00539L18.0081 2.09L17.9901 2.12645L17.9692 2.14973L17.9845 2.14923L17.9975 2.15178L18.009 2.16139L18.0198 2.18062L18.0077 2.20034L17.9856 2.26039L18.0202 2.26256L18.0479 2.25245L18.0694 2.22628L18.0838 2.18056L18.0635 2.1745L18.0407 2.15578L18.0198 2.14973V2.12139L18.0524 2.0905L18.0792 2.14606L18.1216 2.20006L18.1499 2.25673L18.1345 2.31945L18.1819 2.38856L18.2416 2.41028L18.3652 2.40706L18.3475 2.37606L18.3705 2.32128L18.3822 2.30406L18.398 2.29106V2.26034L18.3793 2.20284L18.3662 2.17328L18.3475 2.14967V2.12134L18.3616 2.11089L18.3694 2.10211L18.3791 2.095L18.3981 2.09045V2.06495L18.3682 2.06661L18.3489 2.0845L18.3337 2.10661L18.3161 2.12128L18.2901 2.12584L18.2077 2.12128L18.1948 2.10811L18.1819 2.07873L18.1655 2.04934L18.1427 2.03617L18.1066 2.02839L18.0917 2.00778L18.0835 1.98078L18.0675 1.95139L18.0396 1.91L18.0343 1.89328L18.0021 1.92034L17.9834 1.94028L17.9447 1.99417L17.8885 2.02845L17.8477 2.07323L17.8043 2.10578L17.7563 2.09045L17.7479 2.04128L17.7649 1.96478L17.7962 1.89467L17.83 1.86356L17.8372 1.84595L17.8476 1.80673L17.8528 1.768L17.8458 1.75023L17.7386 1.77834L17.7034 1.803L17.688 1.79845L17.6894 1.75023L17.7028 1.72223L17.7282 1.69445L17.7571 1.67345L18.0863 1.57711L18.1533 1.57611L18.2165 1.61084V1.63656L18.1796 1.66634L18.13 1.69511L18.0865 1.73367L18.0676 1.79256L18.0748 1.86628L18.0953 1.92528L18.1269 1.97106L18.1673 2.00534L18.2674 2.03961L18.5785 1.9795L18.6853 2.00317L18.7577 2.08389L18.7735 2.19073L18.7108 2.29112L18.6044 2.36278L18.5517 2.41434L18.5292 2.475L18.538 2.54456L18.5591 2.61695L18.5861 2.67856L18.6111 2.71523L18.6603 2.74112L18.7739 2.76889L18.824 2.80512ZM5.94999 1.55378L6.06989 1.78111L6.1156 1.80684L6.0828 1.83523L6.00119 1.865L5.94496 1.81328L5.89963 1.73039L5.85199 1.66506L5.92152 1.53334L5.96446 1.48573L6.0172 1.46622L6.01798 1.48622L6.01426 1.49078L6.00745 1.48978L6.0008 1.49467L5.97426 1.52211L5.94999 1.55378ZM6.34635 1.29289L6.47992 1.30106L6.53439 1.33461L6.57716 1.40922V1.43772L6.55721 1.47128L6.5299 1.55123L6.51001 1.57967L6.47721 1.59034L6.4366 1.58545L6.39987 1.57123L6.37915 1.55378L6.31665 1.57767L6.23892 1.55361L6.09914 1.46617L6.1464 1.37889L6.20047 1.326L6.26607 1.29972L6.34635 1.29289ZM6.01714 0.491445L6.00307 0.639834L6.08429 0.717279L6.19986 0.74639L6.72276 0.719835L6.66264 0.767835L6.36275 0.751001L6.32524 0.771446L6.25903 0.823668L6.22269 0.834224H6.05731L6.04169 0.826057L6.02097 0.789668L6.00069 0.779613L5.97764 0.780612L5.96202 0.78689L5.88938 0.837946L5.87709 0.849502L5.87066 0.880113L5.86717 0.962391L5.86013 0.979391L5.86833 1.20734L5.86207 1.28167L5.84994 1.33917L5.83492 1.35139L5.81913 1.29289L5.8172 1.18295L5.8449 0.729612L5.86756 0.640723L6.04911 0.1275L6.15011 0L6.26435 0.0615557L6.11792 0.0696113L6.0992 0.0902779L6.16557 0.0972779L6.18529 0.148334L6.16402 0.206056L6.0664 0.261389L6.02108 0.329667L5.99609 0.413779L6.01714 0.491445ZM6.67494 2.18184L6.82941 2.11567L6.83428 2.16056L6.81495 2.26212L6.75949 2.35067L6.69112 2.39012L6.63721 2.38912L6.60674 2.36178L6.58214 2.30195L6.59699 2.23517L6.64032 2.20145L6.65788 2.193L6.67494 2.18184ZM4.92255 3.67751L4.91064 3.68673L4.90715 3.66967L4.89717 3.66651L4.88958 3.64812L4.87884 3.6354L4.86438 3.62201L4.8995 3.61901L4.91413 3.6354L4.92255 3.67751ZM4.94227 3.62862L4.98427 3.61623L4.99286 3.63851L4.95496 3.6504L4.94227 3.62862Z" fill="currentColor"/>
</svg>
