<svg  viewBox="0 0 17 18" fill="none" xmlns="http://www.w3.org/2000/svg">
<path d="M8.5 0.422363C10.8471 0.422363 12.9721 1.37396 14.5104 2.91193C16.0484 4.4499 17 6.57523 17 8.92236C17 11.2695 16.0484 13.3948 14.5104 14.9328C12.9721 16.4708 10.8471 17.4224 8.5 17.4224C6.15287 17.4224 4.02787 16.4708 2.48957 14.9328C0.951602 13.3945 0 11.2695 0 8.92236C0 6.57523 0.951602 4.45023 2.48957 2.91193C4.02787 1.37396 6.15287 0.422363 8.5 0.422363ZM8.1693 5.76906C8.1693 5.62695 8.19453 5.4948 8.24467 5.37361C8.29447 5.25309 8.36984 5.14318 8.47012 5.04457C8.56973 4.94662 8.67896 4.87191 8.79684 4.82211C8.91537 4.7723 9.04287 4.74641 9.17934 4.74641C9.31613 4.74641 9.44363 4.7723 9.56084 4.82178C9.67838 4.87191 9.78596 4.94662 9.88457 5.04523C9.98252 5.14385 10.0559 5.25309 10.105 5.37428C10.1545 5.4948 10.1787 5.62695 10.1787 5.76906C10.1787 5.90752 10.1545 6.03734 10.1054 6.15721C10.0562 6.27674 9.98318 6.38764 9.88457 6.48824C9.78695 6.58885 9.67938 6.66488 9.56184 6.71535C9.4443 6.76549 9.3168 6.79139 9.17934 6.79139C9.03922 6.79139 8.90906 6.76615 8.7892 6.71635C8.67033 6.66621 8.56143 6.59051 8.46281 6.4909C8.3652 6.39063 8.29148 6.28039 8.24268 6.15986C8.19354 6.03967 8.1693 5.90951 8.1693 5.76906ZM8.61422 11.6845C8.57736 11.8163 8.50299 12.075 8.72379 12.075C8.7716 12.075 8.83236 12.0481 8.90508 11.9953C8.98377 11.9385 9.07408 11.8522 9.17502 11.738C9.27762 11.6218 9.38486 11.484 9.49609 11.3256C9.60666 11.1676 9.7232 10.9863 9.84439 10.7841C9.85668 10.7625 9.88523 10.7552 9.90715 10.7681L10.3175 11.0729C10.3375 11.0872 10.3418 11.1144 10.3292 11.1347C10.1402 11.4627 9.94932 11.7493 9.75607 11.994C9.56184 12.24 9.36461 12.4446 9.16506 12.6059L9.16174 12.6079C8.96186 12.7699 8.75699 12.8918 8.54715 12.9735C7.96344 13.1996 7.04105 13.1627 6.77676 12.4811C6.61008 12.0508 6.74688 11.5617 6.87836 11.1407L7.54109 9.13387C7.58359 8.9818 7.63705 8.81445 7.65631 8.65807C7.68852 8.39676 7.57363 8.22775 7.28908 8.22775H6.70969C6.68445 8.22775 6.66387 8.20717 6.66387 8.18193L6.66652 8.166L6.81859 7.61217C6.82391 7.59158 6.84283 7.57764 6.86342 7.5783L9.82248 7.48566C9.84771 7.48467 9.8693 7.50459 9.87029 7.52982L9.86797 7.5441L8.61422 11.6845ZM13.8703 3.55209C12.496 2.17781 10.5971 1.32748 8.5 1.32748C6.40289 1.32748 4.504 2.17781 3.12973 3.55209C1.75545 4.92637 0.905117 6.82525 0.905117 8.92236C0.905117 11.0195 1.75545 12.9184 3.12973 14.2926C4.504 15.6669 6.40289 16.5172 8.5 16.5172C10.5971 16.5172 12.496 15.6669 13.8703 14.2926C15.2446 12.9184 16.0949 11.0195 16.0949 8.92236C16.0949 6.82525 15.2446 4.92637 13.8703 3.55209Z" fill="currentColor"/>
</svg>
