<svg viewBox="0 0 24 24" fill="none" xmlns="http://www.w3.org/2000/svg">
<rect x="0.5" y="0.5" width="23" height="23" rx="2.5" stroke="black"/>
<path fill-rule="evenodd" clip-rule="evenodd" d="M8.14286 16.8C8.14286 16.6409 8.21059 16.4883 8.33115 16.3757C8.4517 16.2632 8.61522 16.2 8.78571 16.2H20.3571C20.5276 16.2 20.6912 16.2632 20.8117 16.3757C20.9323 16.4883 21 16.6409 21 16.8C21 16.9591 20.9323 17.1117 20.8117 17.2243C20.6912 17.3368 20.5276 17.4 20.3571 17.4H8.78571C8.61522 17.4 8.4517 17.3368 8.33115 17.2243C8.21059 17.1117 8.14286 16.9591 8.14286 16.8ZM8.14286 12C8.14286 11.8409 8.21059 11.6883 8.33115 11.5757C8.4517 11.4632 8.61522 11.4 8.78571 11.4H20.3571C20.5276 11.4 20.6912 11.4632 20.8117 11.5757C20.9323 11.6883 21 11.8409 21 12C21 12.1591 20.9323 12.3117 20.8117 12.4243C20.6912 12.5368 20.5276 12.6 20.3571 12.6H8.78571C8.61522 12.6 8.4517 12.5368 8.33115 12.4243C8.21059 12.3117 8.14286 12.1591 8.14286 12ZM8.14286 7.2C8.14286 7.04087 8.21059 6.88826 8.33115 6.77574C8.4517 6.66321 8.61522 6.6 8.78571 6.6H20.3571C20.5276 6.6 20.6912 6.66321 20.8117 6.77574C20.9323 6.88826 21 7.04087 21 7.2C21 7.35913 20.9323 7.51174 20.8117 7.62426C20.6912 7.73679 20.5276 7.8 20.3571 7.8H8.78571C8.61522 7.8 8.4517 7.73679 8.33115 7.62426C8.21059 7.51174 8.14286 7.35913 8.14286 7.2ZM4.28571 8.4C4.62671 8.4 4.95373 8.27357 5.19485 8.04853C5.43597 7.82348 5.57143 7.51826 5.57143 7.2C5.57143 6.88174 5.43597 6.57652 5.19485 6.35147C4.95373 6.12643 4.62671 6 4.28571 6C3.94472 6 3.6177 6.12643 3.37658 6.35147C3.13546 6.57652 3 6.88174 3 7.2C3 7.51826 3.13546 7.82348 3.37658 8.04853C3.6177 8.27357 3.94472 8.4 4.28571 8.4ZM4.28571 13.2C4.62671 13.2 4.95373 13.0736 5.19485 12.8485C5.43597 12.6235 5.57143 12.3183 5.57143 12C5.57143 11.6817 5.43597 11.3765 5.19485 11.1515C4.95373 10.9264 4.62671 10.8 4.28571 10.8C3.94472 10.8 3.6177 10.9264 3.37658 11.1515C3.13546 11.3765 3 11.6817 3 12C3 12.3183 3.13546 12.6235 3.37658 12.8485C3.6177 13.0736 3.94472 13.2 4.28571 13.2ZM4.28571 18C4.62671 18 4.95373 17.8736 5.19485 17.6485C5.43597 17.4235 5.57143 17.1183 5.57143 16.8C5.57143 16.4817 5.43597 16.1765 5.19485 15.9515C4.95373 15.7264 4.62671 15.6 4.28571 15.6C3.94472 15.6 3.6177 15.7264 3.37658 15.9515C3.13546 16.1765 3 16.4817 3 16.8C3 17.1183 3.13546 17.4235 3.37658 17.6485C3.6177 17.8736 3.94472 18 4.28571 18Z" fill="currentColor"/>
</svg>
