<svg viewBox="0 0 16 16" fill="none" xmlns="http://www.w3.org/2000/svg">
<g clip-path="url(#clip0_1101_3749)">
<mask id="mask0_1101_3749" style="mask-type:luminance" maskUnits="userSpaceOnUse" x="0" y="0" width="16" height="16">
<path d="M0 0.665527H16V15.3344H0V0.665527Z" fill="white"/>
</mask>
<g mask="url(#mask0_1101_3749)">
<path fill-rule="evenodd" clip-rule="evenodd" d="M11.9995 7.33293C11.262 7.33293 10.6655 6.73643 10.6655 5.99979C10.6655 5.26469 11.262 4.66587 11.9995 4.66587C12.7369 4.66587 13.333 5.26469 13.333 5.99979C13.333 6.73643 12.7369 7.33293 11.9995 7.33293ZM7.99848 7.33293C7.26144 7.33293 6.66533 6.73643 6.66533 5.99979C6.66533 5.26469 7.26144 4.66587 7.99848 4.66587C8.73589 4.66587 9.33239 5.26469 9.33239 5.99979C9.33239 6.73643 8.73589 7.33293 7.99848 7.33293ZM3.99789 7.33293C3.26278 7.33293 2.66474 6.73643 2.66474 5.99979C2.66474 5.26469 3.26278 4.66587 3.99789 4.66587C4.7353 4.66587 5.3318 5.26469 5.3318 5.99979C5.3318 6.73643 4.7353 7.33293 3.99789 7.33293ZM11.9995 0.665283H3.99789C1.79837 0.665283 0 2.46559 0 4.66587V7.33293C0 9.53322 1.79837 11.3339 3.99789 11.3339H4.66504V15.3345L9.23741 11.3339H11.9995C14.199 11.3339 16 9.53322 16 7.33293V4.66587C16 2.46559 14.199 0.665283 11.9995 0.665283Z" fill="currentColor"/>
</g>
</g>
<defs>
<clipPath id="clip0_1101_3749">
<rect width="16" height="14.6688" fill="white" transform="translate(0 0.665527)"/>
</clipPath>
</defs>
</svg>
