<svg viewBox="0 0 19 26" fill="none" xmlns="http://www.w3.org/2000/svg">
<path d="M9.5 10.6562C9.70996 10.6562 9.91133 10.7386 10.0598 10.8851C10.2083 11.0316 10.2917 11.2303 10.2917 11.4375V13.7812H12.6667C12.8766 13.7812 13.078 13.8636 13.2265 14.0101C13.3749 14.1566 13.4583 14.3553 13.4583 14.5625C13.4583 14.7697 13.3749 14.9684 13.2265 15.1149C13.078 15.2614 12.8766 15.3438 12.6667 15.3438H10.2917V17.6875C10.2917 17.8947 10.2083 18.0934 10.0598 18.2399C9.91133 18.3864 9.70996 18.4688 9.5 18.4688C9.29004 18.4688 9.08867 18.3864 8.94021 18.2399C8.79174 18.0934 8.70833 17.8947 8.70833 17.6875V15.3438H6.33333C6.12337 15.3438 5.92201 15.2614 5.77354 15.1149C5.62507 14.9684 5.54167 14.7697 5.54167 14.5625C5.54167 14.3553 5.62507 14.1566 5.77354 14.0101C5.92201 13.8636 6.12337 13.7812 6.33333 13.7812H8.70833V11.4375C8.70833 11.2303 8.79174 11.0316 8.94021 10.8851C9.08867 10.7386 9.29004 10.6562 9.5 10.6562Z" fill="currentColor"/>
<path d="M19 7.53125V22.375C19 23.2038 18.6664 23.9987 18.0725 24.5847C17.4786 25.1708 16.6732 25.5 15.8333 25.5H3.16667C2.32681 25.5 1.52136 25.1708 0.927495 24.5847C0.33363 23.9987 0 23.2038 0 22.375V3.625C0 2.7962 0.33363 2.00134 0.927495 1.41529C1.52136 0.82924 2.32681 0.5 3.16667 0.5H11.875L19 7.53125ZM14.25 7.53125C13.6201 7.53125 13.016 7.28432 12.5706 6.84478C12.1252 6.40524 11.875 5.8091 11.875 5.1875V2.0625H3.16667C2.74674 2.0625 2.34401 2.22712 2.04708 2.52015C1.75015 2.81317 1.58333 3.2106 1.58333 3.625V22.375C1.58333 22.7894 1.75015 23.1868 2.04708 23.4799C2.34401 23.7729 2.74674 23.9375 3.16667 23.9375H15.8333C16.2533 23.9375 16.656 23.7729 16.9529 23.4799C17.2499 23.1868 17.4167 22.7894 17.4167 22.375V7.53125H14.25Z" fill="currentColor"/>
</svg>
