<svg viewBox="0 0 16 22" fill="none" xmlns="http://www.w3.org/2000/svg">
<path fill-rule="evenodd" clip-rule="evenodd" d="M4.51946 17.4541H5.8835V16.0922H4.51946V17.4541ZM3.90894 18.0641H6.49348V15.4817H3.90894V18.0641Z" fill="currentColor"/>
<path fill-rule="evenodd" clip-rule="evenodd" d="M4.51946 13.9553H5.8835V12.5934H4.51946V13.9553ZM3.90894 14.5647H6.49348V11.9834H3.90894V14.5647Z" fill="currentColor"/>
<path fill-rule="evenodd" clip-rule="evenodd" d="M4.51946 10.4062H5.8835V9.04007H4.51946V10.4062ZM3.90894 11.0157H6.49348V8.43115H3.90894V11.0157Z" fill="currentColor"/>
<mask id="mask0_1227_1079" style="mask-type:luminance" maskUnits="userSpaceOnUse" x="0" y="0" width="15" height="22">
<path d="M0 0.350342H14.7026V21.6495H0V0.350342Z" fill="white"/>
</mask>
<g mask="url(#mask0_1227_1079)">
<path fill-rule="evenodd" clip-rule="evenodd" d="M7.35389 1.56978C7.86587 1.56978 8.28413 2.0507 8.28413 2.6473C8.28413 3.24122 7.86694 3.72215 7.35389 3.72215C6.83762 3.72215 6.42043 3.24122 6.42043 2.6473C6.42043 2.0507 6.83762 1.56978 7.35389 1.56978ZM14.7027 8.43174V3.946C14.7027 3.22784 14.1189 2.64516 13.4013 2.64516H9.35844C9.35844 1.37752 8.46086 0.350342 7.35228 0.350342C6.24263 0.350342 5.34291 1.37752 5.34291 2.64516H1.30113C0.582431 2.64516 -0.000244141 3.22784 -0.000244141 3.946V20.3466C-0.000244141 21.0669 0.582431 21.6496 1.30113 21.6496H13.4013C14.1189 21.6496 14.7016 21.0658 14.7016 20.3466V19.8202H12.4432H2.00752H1.97164V4.47138H4.08812C4.08812 4.47138 4.15988 6.3731 7.31586 6.3731C10.4724 6.3731 10.6148 4.47138 10.6148 4.47138H12.7335V8.43067C12.7335 9.67314 14.7027 9.73901 14.7027 8.43174Z" fill="currentColor"/>
</g>
<path fill-rule="evenodd" clip-rule="evenodd" d="M10.2324 13.8393C10.242 13.8296 10.2484 13.8205 10.257 13.8087C10.4889 13.5779 10.8638 13.5779 11.0962 13.8087L12.0077 14.7219L13.8382 12.8908C14.0706 12.6584 14.4455 12.6584 14.6769 12.8908C14.9082 13.1216 14.9082 13.4971 14.6769 13.7295L13.7654 14.6415L12.0077 16.3976L11.1701 15.56L10.257 14.6469C10.0342 14.4252 10.0289 14.0733 10.2324 13.8393ZM14.9211 17.0788C16.3596 15.6414 16.3596 13.3101 14.9211 11.8717C13.4831 10.4337 11.1524 10.4337 9.71396 11.8717C8.27601 13.3101 8.27601 15.6403 9.71396 17.0788C11.1524 18.5167 13.4831 18.5167 14.9211 17.0788Z" fill="currentColor"/>
</svg>
