<svg width="38" height="38" viewBox="0 0 38 38" fill="none" xmlns="http://www.w3.org/2000/svg">
<rect x="1" y="37" width="36" height="36" rx="18" transform="rotate(-90 1 37)" fill="white" fill-opacity="0.01"/>
<rect x="1" y="37" width="36" height="36" rx="18" transform="rotate(-90 1 37)" stroke="#187DA4" stroke-width="2"/>
<mask id="path-2-outside-1_1437_1011" maskUnits="userSpaceOnUse" x="13.623" y="10.1265" width="11" height="18" fill="black">
<rect fill="white" x="13.623" y="10.1265" width="11" height="18"/>
<path fill-rule="evenodd" clip-rule="evenodd" d="M14.8067 26.9428C14.7485 26.8848 14.7023 26.8158 14.6708 26.7399C14.6393 26.664 14.623 26.5826 14.623 26.5003C14.623 26.4181 14.6393 26.3367 14.6708 26.2608C14.7023 26.1849 14.7485 26.1159 14.8067 26.0578L21.8654 19.0003L14.8067 11.9428C14.7486 11.8847 14.7025 11.8158 14.671 11.7398C14.6396 11.6639 14.6234 11.5825 14.6234 11.5003C14.6234 11.4182 14.6396 11.3368 14.671 11.2609C14.7025 11.1849 14.7486 11.116 14.8067 11.0578C14.8648 10.9997 14.9338 10.9536 15.0097 10.9222C15.0856 10.8907 15.167 10.8746 15.2492 10.8746C15.3313 10.8746 15.4127 10.8907 15.4886 10.9222C15.5646 10.9536 15.6336 10.9997 15.6917 11.0578L23.1917 18.5578C23.2499 18.6159 23.296 18.6849 23.3276 18.7608C23.3591 18.8367 23.3753 18.9181 23.3753 19.0003C23.3753 19.0826 23.3591 19.164 23.3276 19.2399C23.296 19.3158 23.2499 19.3848 23.1917 19.4428L15.6917 26.9428C15.6336 27.0011 15.5646 27.0472 15.4887 27.0787C15.4128 27.1102 15.3314 27.1265 15.2492 27.1265C15.167 27.1265 15.0856 27.1102 15.0096 27.0787C14.9337 27.0472 14.8647 27.0011 14.8067 26.9428Z"/>
</mask>
<path fill-rule="evenodd" clip-rule="evenodd" d="M14.8067 26.9428C14.7485 26.8848 14.7023 26.8158 14.6708 26.7399C14.6393 26.664 14.623 26.5826 14.623 26.5003C14.623 26.4181 14.6393 26.3367 14.6708 26.2608C14.7023 26.1849 14.7485 26.1159 14.8067 26.0578L21.8654 19.0003L14.8067 11.9428C14.7486 11.8847 14.7025 11.8158 14.671 11.7398C14.6396 11.6639 14.6234 11.5825 14.6234 11.5003C14.6234 11.4182 14.6396 11.3368 14.671 11.2609C14.7025 11.1849 14.7486 11.116 14.8067 11.0578C14.8648 10.9997 14.9338 10.9536 15.0097 10.9222C15.0856 10.8907 15.167 10.8746 15.2492 10.8746C15.3313 10.8746 15.4127 10.8907 15.4886 10.9222C15.5646 10.9536 15.6336 10.9997 15.6917 11.0578L23.1917 18.5578C23.2499 18.6159 23.296 18.6849 23.3276 18.7608C23.3591 18.8367 23.3753 18.9181 23.3753 19.0003C23.3753 19.0826 23.3591 19.164 23.3276 19.2399C23.296 19.3158 23.2499 19.3848 23.1917 19.4428L15.6917 26.9428C15.6336 27.0011 15.5646 27.0472 15.4887 27.0787C15.4128 27.1102 15.3314 27.1265 15.2492 27.1265C15.167 27.1265 15.0856 27.1102 15.0096 27.0787C14.9337 27.0472 14.8647 27.0011 14.8067 26.9428Z" fill="#187DA4"/>
<path d="M14.6708 26.7399L14.209 26.9315L14.6708 26.7399ZM14.8067 26.0578L15.1598 26.4118L15.1602 26.4114L14.8067 26.0578ZM21.8654 19.0003L22.2189 19.3539L22.5726 19.0003L22.2189 18.6468L21.8654 19.0003ZM14.8067 11.9428L14.4531 12.2964L14.4531 12.2964L14.8067 11.9428ZM14.671 11.2609L14.2091 11.0695L14.671 11.2609ZM15.2492 10.8746L15.2492 11.3746L15.2492 10.8746ZM15.6917 11.0578L15.3381 11.4114L15.6917 11.0578ZM23.1917 18.5578L22.8381 18.9114L22.8386 18.9118L23.1917 18.5578ZM23.1917 19.4428L22.8386 19.0888L22.8381 19.0893L23.1917 19.4428ZM15.6917 26.9428L15.3381 26.5893L15.3377 26.5897L15.6917 26.9428ZM15.1598 26.5888C15.1481 26.5772 15.1389 26.5634 15.1326 26.5483L14.209 26.9315C14.2657 27.0682 14.3488 27.1923 14.4536 27.2968L15.1598 26.5888ZM15.1326 26.5483C15.1263 26.5331 15.123 26.5168 15.123 26.5003L14.123 26.5003C14.123 26.6483 14.1522 26.7948 14.209 26.9315L15.1326 26.5483ZM15.123 26.5003C15.123 26.4839 15.1263 26.4676 15.1326 26.4524L14.209 26.0692C14.1522 26.2059 14.123 26.3524 14.123 26.5003L15.123 26.5003ZM15.1326 26.4524C15.1389 26.4373 15.1481 26.4235 15.1598 26.4118L14.4536 25.7038C14.3488 25.8083 14.2657 25.9325 14.209 26.0692L15.1326 26.4524ZM15.1602 26.4114L22.2189 19.3539L21.5119 18.6468L14.4531 25.7043L15.1602 26.4114ZM22.2189 18.6468L15.1602 11.5893L14.4531 12.2964L21.5119 19.3539L22.2189 18.6468ZM15.1602 11.5893C15.1485 11.5776 15.1393 11.5637 15.1329 11.5485L14.2091 11.9312C14.2656 12.0678 14.3486 12.1919 14.4531 12.2964L15.1602 11.5893ZM15.1329 11.5485C15.1266 11.5332 15.1234 11.5169 15.1234 11.5003L14.1234 11.5003C14.1234 11.6482 14.1525 11.7946 14.2091 11.9312L15.1329 11.5485ZM15.1234 11.5003C15.1234 11.4838 15.1266 11.4675 15.1329 11.4522L14.2091 11.0695C14.1525 11.2061 14.1234 11.3525 14.1234 11.5003L15.1234 11.5003ZM15.1329 11.4522C15.1393 11.4369 15.1485 11.4231 15.1602 11.4114L14.4531 10.7043C14.3486 10.8088 14.2656 10.9329 14.2091 11.0695L15.1329 11.4522ZM15.1602 11.4114C15.1719 11.3997 15.1858 11.3905 15.201 11.3841L14.8183 10.4603C14.6818 10.5168 14.5576 10.5998 14.4531 10.7043L15.1602 11.4114ZM15.201 11.3841C15.2163 11.3778 15.2326 11.3746 15.2492 11.3746L15.2492 10.3746C15.1013 10.3746 14.9549 10.4037 14.8183 10.4603L15.201 11.3841ZM15.2492 11.3746C15.2657 11.3746 15.282 11.3778 15.2973 11.3841L15.68 10.4603C15.5434 10.4037 15.397 10.3746 15.2492 10.3746L15.2492 11.3746ZM15.2973 11.3841C15.3126 11.3905 15.3264 11.3997 15.3381 11.4114L16.0452 10.7043C15.9407 10.5998 15.8166 10.5168 15.68 10.4603L15.2973 11.3841ZM15.3381 11.4114L22.8381 18.9114L23.5452 18.2043L16.0452 10.7043L15.3381 11.4114ZM22.8386 18.9118C22.8502 18.9235 22.8594 18.9372 22.8657 18.9524L23.7894 18.5692C23.7327 18.4325 23.6495 18.3084 23.5448 18.2038L22.8386 18.9118ZM22.8657 18.9524C22.872 18.9676 22.8753 18.9839 22.8753 19.0003L23.8753 19.0003C23.8753 18.8524 23.8461 18.7058 23.7894 18.5692L22.8657 18.9524ZM22.8753 19.0003C22.8753 19.0168 22.872 19.0331 22.8657 19.0483L23.7894 19.4315C23.8461 19.2948 23.8753 19.1483 23.8753 19.0003L22.8753 19.0003ZM22.8657 19.0483C22.8594 19.0634 22.8502 19.0772 22.8386 19.0888L23.5448 19.7968C23.6495 19.6923 23.7327 19.5682 23.7894 19.4315L22.8657 19.0483ZM22.8381 19.0893L15.3381 26.5893L16.0452 27.2964L23.5452 19.7964L22.8381 19.0893ZM15.3377 26.5897C15.3261 26.6014 15.3123 26.6106 15.2971 26.6169L15.6803 27.5406C15.817 27.4838 15.9412 27.4007 16.0457 27.296L15.3377 26.5897ZM15.2971 26.6169C15.2819 26.6232 15.2656 26.6265 15.2492 26.6265L15.2492 27.6265C15.3971 27.6265 15.5437 27.5973 15.6803 27.5406L15.2971 26.6169ZM15.2492 26.6265C15.2327 26.6265 15.2164 26.6232 15.2013 26.6169L14.818 27.5406C14.9547 27.5973 15.1012 27.6265 15.2492 27.6265L15.2492 26.6265ZM15.2013 26.6169C15.1861 26.6106 15.1723 26.6014 15.1607 26.5897L14.4527 27.296C14.5572 27.4007 14.6813 27.4838 14.818 27.5406L15.2013 26.6169Z" fill="#187DA4" mask="url(#path-2-outside-1_1437_1011)"/>
</svg>
