<svg viewBox="0 0 23 19" fill="none" xmlns="http://www.w3.org/2000/svg">
<path fill-rule="evenodd" clip-rule="evenodd" d="M20.4922 15.6841C20.4922 16.148 20.0976 16.5235 19.61 16.5235H3.21931C2.73275 16.5235 2.33717 16.148 2.33717 15.6841V5.21301C2.33717 4.75001 2.73275 4.37359 3.21931 4.37359H19.61C20.0976 4.37359 20.4922 4.75001 20.4922 5.21301V15.6841ZM21.6403 1.61914H19.2194V1.92498C19.2194 2.6063 18.6369 3.16058 17.9209 3.16058H17.6124C16.8964 3.16058 16.3139 2.6063 16.3139 1.92498V1.61914H6.86751V1.92498C6.86751 2.6063 6.28503 3.16058 5.56903 3.16058H5.26048C4.54449 3.16058 3.962 2.6063 3.962 1.92498V1.61914H1.4046C0.917049 1.61914 0.522461 1.99462 0.522461 2.45856V17.393C0.522461 17.8569 0.917049 18.2324 1.4046 18.2324H21.6403C22.1279 18.2324 22.5225 17.8569 22.5225 17.393V2.45856C22.5225 1.99462 22.1279 1.61914 21.6403 1.61914Z" fill="#5F5F5F"/>
<path fill-rule="evenodd" clip-rule="evenodd" d="M4.78369 1.92537C4.78369 2.17569 4.9973 2.37895 5.26036 2.37895H5.56891C5.83197 2.37895 6.04558 2.17569 6.04558 1.92537V0.686007C6.04558 0.435688 5.83197 0.232422 5.56891 0.232422H5.26036C4.9973 0.232422 4.78369 0.435688 4.78369 0.686007V1.92537Z" fill="#5F5F5F"/>
<path fill-rule="evenodd" clip-rule="evenodd" d="M17.1353 1.92537C17.1353 2.17569 17.3489 2.37895 17.6119 2.37895H17.9205C18.1835 2.37895 18.3971 2.17569 18.3971 1.92537V0.686007C18.3971 0.435688 18.1835 0.232422 17.9205 0.232422H17.6119C17.3489 0.232422 17.1353 0.435688 17.1353 0.686007V1.92537Z" fill="#5F5F5F"/>
<path fill-rule="evenodd" clip-rule="evenodd" d="M8.11056 5.62402H3.9214C3.77009 5.62402 3.64746 5.74071 3.64746 5.88469V9.87098C3.64746 10.015 3.77009 10.1316 3.9214 10.1316H8.11056C8.26186 10.1316 8.38449 10.015 8.38449 9.87098V5.88469C8.38449 5.74071 8.26186 5.62402 8.11056 5.62402Z" fill="#5F5F5F"/>
<path fill-rule="evenodd" clip-rule="evenodd" d="M13.5095 5.62402H9.32032C9.16902 5.62402 9.04639 5.74071 9.04639 5.88469V9.87098C9.04639 10.015 9.16902 10.1316 9.32032 10.1316H13.5095C13.6608 10.1316 13.7834 10.015 13.7834 9.87098V5.88469C13.7834 5.74071 13.6608 5.62402 13.5095 5.62402Z" fill="#5F5F5F"/>
<path fill-rule="evenodd" clip-rule="evenodd" d="M18.9089 5.62402H14.7197C14.5684 5.62402 14.4458 5.74071 14.4458 5.88469V9.87098C14.4458 10.015 14.5684 10.1316 14.7197 10.1316H18.9089C19.0602 10.1316 19.1828 10.015 19.1828 9.87098V5.88469C19.1828 5.74071 19.0602 5.62402 18.9089 5.62402Z" fill="#5F5F5F"/>
<path fill-rule="evenodd" clip-rule="evenodd" d="M8.11056 10.7661H3.9214C3.77009 10.7661 3.64746 10.8828 3.64746 11.0268V15.0131C3.64746 15.157 3.77009 15.2737 3.9214 15.2737H8.11056C8.26186 15.2737 8.38449 15.157 8.38449 15.0131V11.0268C8.38449 10.8828 8.26186 10.7661 8.11056 10.7661Z" fill="#5F5F5F"/>
<path fill-rule="evenodd" clip-rule="evenodd" d="M13.5095 10.7661H9.32032C9.16902 10.7661 9.04639 10.8828 9.04639 11.0268V15.0131C9.04639 15.157 9.16902 15.2737 9.32032 15.2737H13.5095C13.6608 15.2737 13.7834 15.157 13.7834 15.0131V11.0268C13.7834 10.8828 13.6608 10.7661 13.5095 10.7661Z" fill="#5F5F5F"/>
<path fill-rule="evenodd" clip-rule="evenodd" d="M18.9089 10.7661H14.7197C14.5684 10.7661 14.4458 10.8828 14.4458 11.0268V15.0131C14.4458 15.157 14.5684 15.2737 14.7197 15.2737H18.9089C19.0602 15.2737 19.1828 15.157 19.1828 15.0131V11.0268C19.1828 10.8828 19.0602 10.7661 18.9089 10.7661Z" fill="#5F5F5F"/>
</svg>
