<svg width="21" height="26" viewBox="0 0 21 26" fill="none" xmlns="http://www.w3.org/2000/svg">
<path fill-rule="evenodd" clip-rule="evenodd" d="M13.1363 11.4999L13.9588 10.9183C15.4999 9.81887 16.5005 8.03572 16.5005 6.00723C16.5005 4.70685 16.0873 3.51254 15.3866 2.52847C15.2529 2.35075 15.1151 2.17369 14.9694 2.00791C14.9529 1.99597 14.9403 1.97811 14.923 1.95755C14.7813 1.80305 14.631 1.65717 14.4761 1.52322C14.4595 1.50133 14.4469 1.49731 14.435 1.48471C14.088 1.17901 13.7078 0.917106 13.3032 0.703581C13.2873 0.695623 13.2741 0.69164 13.2582 0.677714C13.082 0.590845 12.9032 0.502645 12.7112 0.431691C12.6516 0.40185 12.5939 0.385264 12.5357 0.361391C12.3853 0.312321 12.2357 0.260583 12.0807 0.219469C12.0099 0.202228 11.939 0.185648 11.8675 0.165091C11.7138 0.131272 11.5549 0.0974532 11.3999 0.0822017C11.3337 0.0636343 11.2629 0.0550475 11.1913 0.0431109C10.9615 0.0225546 10.7357 0 10.5033 0C10.3152 0.00530484 10.1311 0.0185603 9.9523 0.0298338C9.89336 0.0391175 9.843 0.0430833 9.7887 0.0523679C9.65493 0.0636405 9.52248 0.0895104 9.38804 0.114046C9.33838 0.125982 9.28803 0.13128 9.23836 0.143879C8.88737 0.219475 8.54569 0.322944 8.22384 0.457558C8.17417 0.478115 8.12713 0.50267 8.08143 0.52389C7.96024 0.574288 7.84832 0.632608 7.73044 0.691626C7.68474 0.715498 7.64307 0.741381 7.5934 0.757959C7.44307 0.850134 7.29735 0.941642 7.15099 1.03382C7.14702 1.03912 7.14307 1.04307 7.13909 1.05169C7.00466 1.14254 6.86294 1.2387 6.73844 1.34347C6.69605 1.38127 6.65893 1.41444 6.61191 1.44826C6.52119 1.53115 6.4285 1.61536 6.33645 1.69825C6.29473 1.73605 6.25828 1.77852 6.22385 1.81632C6.09868 1.93634 5.99011 2.06231 5.87753 2.19162C5.86958 2.20356 5.85764 2.22148 5.84836 2.23077C5.753 2.35477 5.66097 2.47942 5.56892 2.60475C5.53581 2.65183 5.50667 2.70221 5.47687 2.74598C5.40998 2.85208 5.34308 2.95621 5.2848 3.06098C5.2603 3.11138 5.23049 3.15779 5.20135 3.21084C5.12652 3.36269 5.05104 3.51255 4.98018 3.67104C4.67555 4.39318 4.50006 5.17963 4.50006 6.01516C4.50006 6.71807 4.62125 7.38652 4.83846 8.00985C5.26031 9.19353 6.03646 10.2088 7.04704 10.9223L7.86886 11.5078L6.91659 11.8547C2.88421 13.3182 3.43046e-05 17.1921 3.43046e-05 21.7398C-0.00316999 22.1695 0.217982 22.6602 0.714663 23.1629C1.04446 23.4998 1.50343 23.8326 2.05442 24.1523C2.32196 24.2975 2.60936 24.444 2.91862 24.5813C4.82985 25.4347 7.52319 26.003 10.5033 25.9999C14.9608 26.0163 18.8051 24.633 20.2918 23.1112C20.7918 22.6098 21.0037 22.1397 20.9999 21.7398C21.0037 17.1888 18.121 13.3096 14.0847 11.8421L13.1363 11.4999Z" fill="#464C59"/>
</svg>
