<svg width="21" height="27" viewBox="0 0 21 27" fill="none" xmlns="http://www.w3.org/2000/svg">
<path fill-rule="evenodd" clip-rule="evenodd" d="M10.4964 0.312905C10.2413 0.312905 9.9973 0.415057 9.81884 0.59227C8.3216 2.06447 7.13911 2.69216 5.89958 2.85577C4.66005 3.01918 3.23284 2.70353 1.31387 1.95972C0.683982 1.71578 -0.00076968 2.16583 6.49353e-07 2.82302C0.00381562 9.17472 0.193558 13.7318 1.56842 17.4152C2.94348 21.0988 5.56327 23.7952 10.0358 26.1968C10.3246 26.3511 10.6754 26.3511 10.9642 26.1968C15.4359 23.7951 18.0568 21.1014 19.4316 17.4152C20.8063 13.7295 20.9975 9.16524 21 2.80458C21.0016 2.14503 20.3133 1.69424 19.6823 1.9414C17.7644 2.69244 16.3388 3.01344 15.1007 2.85168C13.8624 2.69012 12.6814 2.06407 11.1852 0.591877C11.004 0.411715 10.7555 0.312007 10.4964 0.312905Z" fill="#464C59"/>
</svg>
