<svg width="11" height="11" viewBox="0 0 11 11" fill="none" xmlns="http://www.w3.org/2000/svg">
<path d="M10.1862 2.68618L8.31382 0.813817C8.11289 0.612885 7.84037 0.500001 7.55621 0.5H1.57143C0.979688 0.5 0.5 0.979688 0.5 1.57143V9.42857C0.5 10.0203 0.979688 10.5 1.57143 10.5H9.42857C10.0203 10.5 10.5 10.0203 10.5 9.42857V3.44379C10.5 3.15963 10.3871 2.88711 10.1862 2.68618ZM5.5 9.07143C4.71103 9.07143 4.07143 8.43183 4.07143 7.64286C4.07143 6.85388 4.71103 6.21429 5.5 6.21429C6.28897 6.21429 6.92857 6.85388 6.92857 7.64286C6.92857 8.43183 6.28897 9.07143 5.5 9.07143ZM7.64286 2.27411V4.51786C7.64286 4.66578 7.52292 4.78571 7.375 4.78571H2.19643C2.0485 4.78571 1.92857 4.66578 1.92857 4.51786V2.19643C1.92857 2.0485 2.0485 1.92857 2.19643 1.92857H7.29732C7.36837 1.92857 7.4365 1.95679 7.48672 2.00703L7.5644 2.08471C7.58927 2.10958 7.60901 2.13911 7.62247 2.1716C7.63593 2.2041 7.64286 2.23893 7.64286 2.27411Z" fill="white"/>
</svg>
