<svg viewBox="0 0 18 14" fill="none" xmlns="http://www.w3.org/2000/svg">
<path d="M2.25 10.0625C2.61467 10.0625 2.96479 10.207 3.22266 10.4648C3.48052 10.7227 3.625 11.0728 3.625 11.4375C3.625 11.8022 3.48052 12.1523 3.22266 12.4102C2.96479 12.668 2.61467 12.8125 2.25 12.8125C1.88533 12.8125 1.53521 12.668 1.27734 12.4102C1.01948 12.1523 0.875 11.8022 0.875 11.4375C0.875 11.0728 1.01948 10.7227 1.27734 10.4648C1.53521 10.207 1.88533 10.0625 2.25 10.0625ZM16.3125 10.625C16.528 10.625 16.7343 10.7109 16.8867 10.8633C17.0391 11.0157 17.125 11.222 17.125 11.4375C17.125 11.653 17.0391 11.8593 16.8867 12.0117C16.7343 12.1641 16.528 12.25 16.3125 12.25H6.1875C5.97201 12.25 5.76565 12.1641 5.61328 12.0117C5.46091 11.8593 5.375 11.653 5.375 11.4375C5.375 11.222 5.46091 11.0157 5.61328 10.8633C5.76565 10.7109 5.97201 10.625 6.1875 10.625H16.3125ZM2.25 5.5625C2.61467 5.5625 2.96479 5.70698 3.22266 5.96484C3.48052 6.22271 3.625 6.57283 3.625 6.9375C3.625 7.30217 3.48052 7.65229 3.22266 7.91016C2.96479 8.16802 2.61467 8.3125 2.25 8.3125C1.88533 8.3125 1.53521 8.16802 1.27734 7.91016C1.01948 7.65229 0.875 7.30217 0.875 6.9375C0.875 6.57283 1.01948 6.22271 1.27734 5.96484C1.53521 5.70698 1.88533 5.5625 2.25 5.5625ZM16.3125 6.125C16.528 6.125 16.7343 6.21091 16.8867 6.36328C17.0391 6.51565 17.125 6.72201 17.125 6.9375C17.125 7.15299 17.0391 7.35935 16.8867 7.51172C16.7343 7.66409 16.528 7.75 16.3125 7.75H6.1875C5.97201 7.75 5.76565 7.66409 5.61328 7.51172C5.46091 7.35935 5.375 7.15299 5.375 6.9375C5.375 6.72201 5.46091 6.51565 5.61328 6.36328C5.76565 6.21091 5.97201 6.125 6.1875 6.125H16.3125ZM2.38574 1.06934C2.70057 1.10056 2.99699 1.23918 3.22266 1.46484C3.48052 1.72271 3.625 2.07283 3.625 2.4375C3.625 2.80217 3.48052 3.15229 3.22266 3.41016C2.96479 3.66802 2.61467 3.8125 2.25 3.8125C1.88533 3.8125 1.53521 3.66802 1.27734 3.41016C1.01948 3.15229 0.875 2.80217 0.875 2.4375L0.881836 2.30176C0.913061 1.98693 1.05168 1.69051 1.27734 1.46484C1.53521 1.20698 1.88533 1.0625 2.25 1.0625L2.38574 1.06934ZM16.3125 1.625C16.528 1.625 16.7343 1.71091 16.8867 1.86328C17.0391 2.01565 17.125 2.22201 17.125 2.4375C17.125 2.62589 17.0597 2.80763 16.9414 2.95215L16.8867 3.01172C16.7343 3.16409 16.528 3.25 16.3125 3.25H6.1875C5.99911 3.25 5.81737 3.18468 5.67285 3.06641L5.61328 3.01172C5.46091 2.85935 5.375 2.65299 5.375 2.4375C5.375 2.22201 5.46091 2.01565 5.61328 1.86328C5.76565 1.71091 5.97201 1.625 6.1875 1.625H16.3125Z" fill="currentColor" stroke="currentColor" stroke-width="0.5"/>
</svg>
