<svg viewBox="0 0 18 13" fill="none" xmlns="http://www.w3.org/2000/svg">
<path d="M2.25 9.5625C2.61467 9.5625 2.96479 9.70698 3.22266 9.96484C3.48052 10.2227 3.625 10.5728 3.625 10.9375C3.625 11.3022 3.48052 11.6523 3.22266 11.9102C2.96479 12.168 2.61467 12.3125 2.25 12.3125C1.88533 12.3125 1.53521 12.168 1.27734 11.9102C1.01948 11.6523 0.875 11.3022 0.875 10.9375C0.875 10.5728 1.01948 10.2227 1.27734 9.96484C1.53521 9.70698 1.88533 9.5625 2.25 9.5625ZM16.3125 10.125C16.528 10.125 16.7343 10.2109 16.8867 10.3633C17.0391 10.5157 17.125 10.722 17.125 10.9375C17.125 11.153 17.0391 11.3593 16.8867 11.5117C16.7343 11.6641 16.528 11.75 16.3125 11.75H6.1875C5.97201 11.75 5.76565 11.6641 5.61328 11.5117C5.46091 11.3593 5.375 11.153 5.375 10.9375C5.375 10.722 5.46091 10.5157 5.61328 10.3633C5.76565 10.2109 5.97201 10.125 6.1875 10.125H16.3125ZM2.25 5.0625C2.61467 5.0625 2.96479 5.20698 3.22266 5.46484C3.48052 5.72271 3.625 6.07283 3.625 6.4375C3.625 6.80217 3.48052 7.15229 3.22266 7.41016C2.96479 7.66802 2.61467 7.8125 2.25 7.8125C1.88533 7.8125 1.53521 7.66802 1.27734 7.41016C1.01948 7.15229 0.875 6.80217 0.875 6.4375C0.875 6.07283 1.01948 5.72271 1.27734 5.46484C1.53521 5.20698 1.88533 5.0625 2.25 5.0625ZM16.3125 5.625C16.528 5.625 16.7343 5.71091 16.8867 5.86328C17.0391 6.01565 17.125 6.22201 17.125 6.4375C17.125 6.65299 17.0391 6.85935 16.8867 7.01172C16.7343 7.16409 16.528 7.25 16.3125 7.25H6.1875C5.97201 7.25 5.76565 7.16409 5.61328 7.01172C5.46091 6.85935 5.375 6.65299 5.375 6.4375C5.375 6.22201 5.46091 6.01565 5.61328 5.86328C5.76565 5.71091 5.97201 5.625 6.1875 5.625H16.3125ZM2.38574 0.569336C2.70057 0.600561 2.99699 0.739179 3.22266 0.964844C3.48052 1.22271 3.625 1.57283 3.625 1.9375C3.625 2.30217 3.48052 2.65229 3.22266 2.91016C2.96479 3.16802 2.61467 3.3125 2.25 3.3125C1.88533 3.3125 1.53521 3.16802 1.27734 2.91016C1.01948 2.65229 0.875 2.30217 0.875 1.9375L0.881836 1.80176C0.913061 1.48693 1.05168 1.19051 1.27734 0.964844C1.53521 0.706981 1.88533 0.5625 2.25 0.5625L2.38574 0.569336ZM16.3125 1.125C16.528 1.125 16.7343 1.21091 16.8867 1.36328C17.0391 1.51565 17.125 1.72201 17.125 1.9375C17.125 2.12589 17.0597 2.30763 16.9414 2.45215L16.8867 2.51172C16.7343 2.66409 16.528 2.75 16.3125 2.75H6.1875C5.99911 2.75 5.81737 2.68468 5.67285 2.56641L5.61328 2.51172C5.46091 2.35935 5.375 2.15299 5.375 1.9375C5.375 1.72201 5.46091 1.51565 5.61328 1.36328C5.76565 1.21091 5.97201 1.125 6.1875 1.125H16.3125Z" fill="#494C59" stroke="#494C59" stroke-width="0.5"/>
</svg>
