<svg viewBox="0 0 11 33" fill="none" xmlns="http://www.w3.org/2000/svg">
<rect width="11" height="33" fill="white" fill-opacity="0.01"/>
<path d="M4.98235 23.6588L1.6851 19.8899C1.29598 19.4464 1.61223 18.75 2.20279 18.75H8.79729C8.92946 18.7499 9.05886 18.7879 9.16999 18.8594C9.28113 18.9309 9.36928 19.033 9.42391 19.1534C9.47854 19.2737 9.49731 19.4072 9.47799 19.538C9.45867 19.6687 9.40207 19.7912 9.31498 19.8906L6.01773 23.6581C5.9532 23.7319 5.87362 23.7911 5.78433 23.8316C5.69504 23.8722 5.5981 23.8932 5.50004 23.8932C5.40197 23.8932 5.30504 23.8722 5.21575 23.8316C5.12646 23.7911 5.04688 23.7319 4.98235 23.6581V23.6588Z" fill="white"/>
<path d="M4.98235 11.3414L1.6851 15.1095C1.29598 15.5544 1.61223 16.2501 2.20279 16.2501H8.79729C8.92946 16.2502 9.05886 16.2122 9.16999 16.1407C9.28113 16.0692 9.36928 15.9671 9.42391 15.8468C9.47854 15.7264 9.49731 15.5929 9.47799 15.4621C9.45867 15.3314 9.40207 15.209 9.31498 15.1095L6.01773 11.342C5.9532 11.2682 5.87362 11.209 5.78433 11.1685C5.69504 11.1279 5.5981 11.1069 5.50004 11.1069C5.40197 11.1069 5.30504 11.1279 5.21575 11.1685C5.12646 11.209 5.04688 11.2682 4.98235 11.342V11.3414Z" fill="white"/>
</svg>
