<svg width="19" height="18" viewBox="0 0 19 18" fill="none" xmlns="http://www.w3.org/2000/svg">
<path d="M2.12501 9.00008C2.12482 7.79317 2.44235 6.60748 3.04568 5.5622C3.64901 4.51692 4.51688 3.64888 5.56205 3.04535C6.60721 2.44181 7.79284 2.12405 8.99974 2.124C10.2066 2.12396 11.3923 2.44163 12.4375 3.04508C12.581 3.12665 12.7509 3.14816 12.9102 3.10492C13.0695 3.06168 13.2052 2.95719 13.2877 2.81426C13.3702 2.67133 13.3928 2.50156 13.3507 2.342C13.3085 2.18244 13.2049 2.04605 13.0625 1.96258C11.5136 1.06831 9.71286 0.710105 7.93962 0.943528C6.16637 1.17695 4.51969 1.98896 3.25495 3.25361C1.99022 4.51826 1.17811 6.16489 0.944573 7.93812C0.711036 9.71136 1.06912 11.5121 1.96329 13.0611C2.85747 14.6101 4.23776 15.8207 5.89011 16.5053C7.54245 17.1899 9.37451 17.3101 11.1022 16.8474C12.8298 16.3846 14.3565 15.3648 15.4455 13.9459C16.5344 12.5271 17.1248 10.7886 17.125 9.00008C17.125 8.83432 17.0592 8.67535 16.942 8.55814C16.8247 8.44093 16.6658 8.37508 16.5 8.37508C16.3343 8.37508 16.1753 8.44093 16.0581 8.55814C15.9409 8.67535 15.875 8.83432 15.875 9.00008C15.875 10.8234 15.1507 12.5721 13.8614 13.8614C12.5721 15.1508 10.8234 15.8751 9.00001 15.8751C7.17665 15.8751 5.42796 15.1508 4.13865 13.8614C2.84934 12.5721 2.12501 10.8234 2.12501 9.00008Z" fill="#006F9B"/>
<path d="M18.1925 3.19258C18.2506 3.13447 18.2967 3.06548 18.3282 2.98956C18.3596 2.91363 18.3758 2.83226 18.3758 2.75008C18.3758 2.6679 18.3596 2.58652 18.3282 2.5106C18.2967 2.43468 18.2506 2.36569 18.1925 2.30758C18.1344 2.24947 18.0654 2.20337 17.9895 2.17192C17.9136 2.14048 17.8322 2.12429 17.75 2.12429C17.6678 2.12429 17.5865 2.14048 17.5105 2.17192C17.4346 2.20337 17.3656 2.24947 17.3075 2.30758L9.00001 10.6163L5.69251 7.30758C5.6344 7.24947 5.56541 7.20337 5.48949 7.17192C5.41357 7.14048 5.33219 7.12429 5.25001 7.12429C5.16783 7.12429 5.08646 7.14048 5.01053 7.17192C4.93461 7.20337 4.86562 7.24947 4.80751 7.30758C4.7494 7.36569 4.70331 7.43468 4.67186 7.5106C4.64041 7.58652 4.62422 7.6679 4.62422 7.75008C4.62422 7.83226 4.64041 7.91363 4.67186 7.98956C4.70331 8.06548 4.7494 8.13447 4.80751 8.19258L8.55751 11.9426C8.61557 12.0008 8.68454 12.047 8.76047 12.0785C8.8364 12.11 8.9178 12.1262 9.00001 12.1262C9.08222 12.1262 9.16362 12.11 9.23955 12.0785C9.31548 12.047 9.38445 12.0008 9.44251 11.9426L18.1925 3.19258Z" fill="#006F9B"/>
</svg>
