<svg viewBox="0 0 25 28" fill="none" xmlns="http://www.w3.org/2000/svg">
<path fill-rule="evenodd" clip-rule="evenodd" d="M11.3381 25.9511L11.3381 27.3805C11.3381 27.6595 11.5644 27.8857 11.8434 27.8857L13.8951 27.8857C14.1745 27.8857 14.4008 27.6595 14.4008 27.3805L14.4008 25.9511C14.4008 25.6722 14.6271 25.4459 14.906 25.4459L16.6927 25.4459C17.1234 25.4459 17.3568 24.9419 17.0783 24.6137L13.1973 20.0332C12.9954 19.7951 12.628 19.7951 12.4257 20.0332L8.54474 24.6137C8.26663 24.9419 8.50008 25.4459 8.93031 25.4459L10.8329 25.4459C11.1118 25.4459 11.3381 25.6722 11.3381 25.9511Z" fill="currentColor"/>
<mask id="mask0_1315_551" style="mask-type:luminance" maskUnits="userSpaceOnUse" x="0" y="0" width="25" height="22">
<path d="M0 0.403809H24.7254V21.8646H0V0.403809Z" fill="white"/>
</mask>
<g mask="url(#mask0_1315_551)">
<path fill-rule="evenodd" clip-rule="evenodd" d="M20.9122 17.1894H20.2515H19.5903L17.3363 10.5352H18.0746H18.8133L20.2751 15.613L21.7327 10.5352H22.4478H23.1666L20.9122 17.1894ZM15.0398 16.8207C14.548 17.1868 13.883 17.3706 13.0445 17.3706C12.2026 17.3706 11.5448 17.1759 11.0711 16.7865C10.5971 16.3972 10.3442 15.8435 10.3109 15.1254H11.6505C11.6661 15.4781 11.7938 15.7499 12.0357 15.94C12.2767 16.13 12.613 16.2252 13.0445 16.2252C13.4878 16.2252 13.8342 16.1536 14.0828 16.0099C14.3318 15.8666 14.4566 15.6686 14.4566 15.4149C14.4566 15.1642 14.3668 14.9805 14.1873 14.8629C14.012 14.7449 13.6382 14.6227 13.0651 14.4959C12.0096 14.2607 11.3042 14.0054 10.9481 13.731C10.595 13.4592 10.4184 13.0358 10.4184 12.4589C10.4184 11.8133 10.6518 11.3009 11.1196 10.9221C11.5873 10.5437 12.2194 10.354 13.0158 10.354C13.7608 10.354 14.3672 10.5504 14.8345 10.9427C15.3023 11.3346 15.5619 11.8643 15.6133 12.5314H14.2598C14.2353 12.2145 14.0967 11.9633 13.8434 11.7779C13.5902 11.5921 13.2598 11.4994 12.8528 11.4994C12.4996 11.4994 12.2236 11.5773 12.0247 11.7328C11.8258 11.8879 11.726 12.1045 11.726 12.3822C11.726 12.5811 11.83 12.7353 12.0382 12.8436C12.2438 12.9523 12.6796 13.0808 13.3466 13.2288C14.3154 13.4458 14.9622 13.6965 15.288 13.9801C15.6145 14.2607 15.7776 14.7116 15.7776 15.3336C15.7776 15.9581 15.5315 16.4536 15.0398 16.8207ZM4.48525 15.5624C4.77685 15.9648 5.18265 16.1662 5.70222 16.1662C6.11013 16.1662 6.44639 16.0487 6.71102 15.8131C6.97523 15.578 7.13031 15.2594 7.17539 14.8583H8.56513C8.48085 15.6277 8.17956 16.2387 7.6621 16.6913C7.14463 17.1443 6.486 17.3706 5.68621 17.3706C4.75073 17.3706 4.00782 17.0579 3.45707 16.4334C2.90631 15.8089 2.63073 14.964 2.63073 13.8983C2.63073 12.812 2.90631 11.9498 3.45707 11.3114C4.00782 10.6735 4.75073 10.354 5.68621 10.354C6.47673 10.354 7.13199 10.5677 7.65072 10.9946C8.16987 11.4214 8.47453 12.0004 8.56513 12.7307H7.17539C7.13031 12.3712 6.97523 12.0864 6.71102 11.8753C6.44639 11.6641 6.11013 11.5584 5.70222 11.5584C5.1856 11.5584 4.78065 11.764 4.48736 12.1765C4.19407 12.5878 4.04785 13.1592 4.04785 13.8895C4.04785 14.6016 4.19323 15.1591 4.48525 15.5624ZM4.08451 1.71433C4.08451 1.57695 4.19576 1.46571 4.33313 1.46571H14.9319C15.0693 1.46571 15.1809 1.57695 15.1809 1.71433V7.12453C15.1809 7.55476 15.5298 7.90409 15.9605 7.90409H21.2898C21.4272 7.90409 21.5384 8.01534 21.5384 8.15271V8.59264C21.5384 8.72959 21.4272 8.84126 21.2898 8.84126H4.33313C4.19576 8.84126 4.08451 8.72959 4.08451 8.59264V1.71433ZM16.2428 2.83311C16.2428 2.61104 16.5121 2.50021 16.6684 2.65866L20.38 6.4187C20.5351 6.57588 20.4238 6.8422 20.203 6.8422H16.4914C16.3541 6.8422 16.2428 6.73095 16.2428 6.59358V2.83311ZM24.4767 8.84126H22.8489C22.7115 8.84126 22.6003 8.72959 22.6003 8.59264V7.37314C22.6003 7.23619 22.543 7.09756 22.4469 6.99979L16.0894 0.561408C16.0064 0.457746 15.8391 0.403809 15.7119 0.403809H3.80218C3.37153 0.403809 3.02262 0.752718 3.02262 1.18338V8.59264C3.02262 8.72959 2.91095 8.84126 2.77358 8.84126H0.248619C0.111246 8.84126 0 8.95251 0 9.08988V19.1353C0 19.2727 0.111246 19.384 0.248619 19.384H2.77358C2.91095 19.384 3.02262 19.4956 3.02262 19.633V21.0851C3.02262 21.5158 3.37153 21.8647 3.80218 21.8647H10.1247C10.2621 21.8647 10.3733 21.7534 10.3733 21.6161V21.0518C10.3733 20.9144 10.2621 20.8028 10.1247 20.8028H4.33313C4.19576 20.8028 4.08451 20.6915 4.08451 20.5542V19.633C4.08451 19.4956 4.19576 19.384 4.33313 19.384H21.2898C21.4272 19.384 21.5384 19.4956 21.5384 19.633V20.5542C21.5384 20.6915 21.4272 20.8028 21.2898 20.8028H15.4544C15.317 20.8028 15.2058 20.9144 15.2058 21.0518V21.6161C15.2058 21.7534 15.317 21.8647 15.4544 21.8647H21.8207C22.2514 21.8647 22.6003 21.5158 22.6003 21.0851V19.633C22.6003 19.4956 22.7115 19.384 22.8489 19.384H24.4767C24.6141 19.384 24.7254 19.2727 24.7254 19.1353V9.08988C24.7254 8.95251 24.6141 8.84126 24.4767 8.84126Z" fill="currentColor"/>
</g>
</svg>
