<svg width="30" height="30" viewBox="0 0 30 30" fill="none" xmlns="http://www.w3.org/2000/svg">
<mask id="mask0_1070_6853" style="mask-type:luminance" maskUnits="userSpaceOnUse" x="0" y="0" width="17" height="30">
<path d="M0 0H16.2664V30H0V0Z" fill="white"/>
</mask>
<g mask="url(#mask0_1070_6853)">
<path fill-rule="evenodd" clip-rule="evenodd" d="M15.0009 27.4675H3.40866C2.92666 27.4675 2.53309 27.074 2.53309 26.5903V3.41004C2.53309 2.92462 2.92666 2.53109 3.40866 2.53109H15.0009C15.7013 2.53109 16.2665 1.96593 16.2665 1.26554C16.2665 0.565161 15.7013 0 15.0009 0H3.40866C1.52921 0 0 1.53079 0 3.41004V26.5903C0 28.4696 1.52921 30.0003 3.40866 30.0003H15.0009C15.7013 30.0003 16.2665 29.4335 16.2665 28.7331C16.2665 28.0344 15.7013 27.4675 15.0009 27.4675Z" fill="#464C59"/>
</g>
<mask id="mask1_1070_6853" style="mask-type:luminance" maskUnits="userSpaceOnUse" x="13" y="7" width="17" height="16">
<path d="M13.7458 7.98251H30V22.0192H13.7458V7.98251Z" fill="white"/>
</mask>
<g mask="url(#mask1_1070_6853)">
<path fill-rule="evenodd" clip-rule="evenodd" d="M28.7345 13.7347H18.0578L21.6485 10.1443C22.1426 9.64853 22.1426 8.84759 21.6485 8.35351C21.4005 8.1056 21.0763 7.98251 20.7538 7.98251C20.4296 7.98251 20.1054 8.1056 19.8574 8.35351L14.1047 14.1057C14.0908 14.1195 14.0839 14.1386 14.07 14.1525C14.0267 14.201 13.992 14.253 13.9556 14.3068C13.9226 14.3588 13.888 14.4073 13.862 14.4628C13.8533 14.4819 13.8377 14.4975 13.8307 14.5165C13.8134 14.5564 13.8117 14.598 13.7995 14.6379C13.7822 14.6968 13.7649 14.7558 13.7562 14.8165C13.7458 14.8789 13.7458 14.9395 13.7458 15.0002C13.7458 15.0626 13.7458 15.1233 13.7562 15.184C13.7649 15.2464 13.7822 15.3036 13.7995 15.3643C13.8117 15.4042 13.8134 15.4458 13.8307 15.4856C13.8377 15.5047 13.8533 15.5203 13.862 15.5394C13.888 15.5931 13.9226 15.6434 13.9556 15.6937C13.992 15.7491 14.0267 15.8012 14.07 15.848C14.0839 15.8636 14.0908 15.8826 14.1047 15.8965L19.8574 21.6487C20.3516 22.1427 21.1543 22.1427 21.6485 21.6487C22.1426 21.1546 22.1426 20.3519 21.6485 19.8578L18.0578 16.2675H28.7345C29.435 16.2675 30.0002 15.7006 30.0002 15.0002C30.0002 14.3016 29.435 13.7347 28.7345 13.7347Z" fill="#464C59"/>
</g>
</svg>
