<svg viewBox="0 0 16 16" fill="none" xmlns="http://www.w3.org/2000/svg">
<path fill-rule="evenodd" clip-rule="evenodd" d="M4.26971 1.55801L3.25029 5.29401L3.23429 5.36029C1.272 5.67229 0 6.17286 0 6.73743C0 7.68372 3.58171 8.45172 8 8.45172C12.4183 8.45172 16 7.68372 16 6.73743C16 6.17286 14.728 5.67229 12.7657 5.36029C12.761 5.33805 12.7557 5.31594 12.7497 5.29401L11.7303 1.55686C11.5634 0.94772 10.9326 0.586578 10.3143 0.718006C9.61257 0.866578 8.70857 1.02315 8 1.02315C7.29143 1.02315 6.38743 0.86772 5.68571 0.718006C5.06743 0.586578 4.43657 0.946578 4.26971 1.55801ZM4.28686 5.97743C4.29057 5.94005 4.30162 5.90376 4.31938 5.87066C4.33714 5.83755 4.36125 5.80827 4.39033 5.78449C4.41942 5.76071 4.45291 5.7429 4.48889 5.73208C4.52486 5.72126 4.56262 5.71764 4.6 5.72143C5.62857 5.82658 6.78286 5.88486 8 5.88486C9.13536 5.88752 10.2701 5.83297 11.4 5.72143C11.4755 5.71386 11.5509 5.73657 11.6096 5.78458C11.6683 5.83259 11.7056 5.90196 11.7131 5.97743C11.7207 6.05291 11.698 6.1283 11.65 6.18703C11.602 6.24575 11.5326 6.283 11.4571 6.29058C10.408 6.39686 9.23543 6.45629 8 6.45629C6.76457 6.45629 5.592 6.39686 4.54286 6.29058C4.50547 6.28686 4.46919 6.27581 4.43608 6.25805C4.40297 6.2403 4.37369 6.21619 4.34991 6.1871C4.32613 6.15801 4.30832 6.12452 4.2975 6.08855C4.28668 6.05257 4.28307 6.01481 4.28686 5.97743ZM2.85714 10.7374H5.14286C5.29441 10.7374 5.43975 10.7976 5.54692 10.9048C5.65408 11.012 5.71429 11.1573 5.71429 11.3089V12.4517C5.71429 12.9064 5.53367 13.3424 5.21218 13.6639C4.89069 13.9854 4.45466 14.166 4 14.166C3.54534 14.166 3.10931 13.9854 2.78782 13.6639C2.46633 13.3424 2.28571 12.9064 2.28571 12.4517V11.3089C2.28571 11.1573 2.34592 11.012 2.45308 10.9048C2.56025 10.7976 2.70559 10.7374 2.85714 10.7374ZM1.14286 11.3089C1.14286 11.1089 1.17714 10.9157 1.24 10.7374H1.14286C0.991305 10.7374 0.84596 10.6772 0.738796 10.5701C0.631633 10.4629 0.571429 10.3176 0.571429 10.166C0.571429 10.0145 0.631633 9.86911 0.738796 9.76194C0.84596 9.65478 0.991305 9.59458 1.14286 9.59458H5.14286C5.56027 9.59463 5.96332 9.74697 6.27641 10.023C6.5895 10.2991 6.79111 10.6799 6.84343 11.094C7.59765 10.8662 8.40235 10.8662 9.15657 11.094C9.20889 10.6799 9.4105 10.2991 9.72359 10.023C10.0367 9.74697 10.4397 9.59463 10.8571 9.59458H14.8571C15.0087 9.59458 15.154 9.65478 15.2612 9.76194C15.3684 9.86911 15.4286 10.0145 15.4286 10.166C15.4286 10.3176 15.3684 10.4629 15.2612 10.5701C15.154 10.6772 15.0087 10.7374 14.8571 10.7374H14.76C14.8229 10.9157 14.8571 11.1089 14.8571 11.3089V12.4517C14.8571 13.2095 14.5561 13.9362 14.0203 14.472C13.4845 15.0078 12.7578 15.3089 12 15.3089C11.2422 15.3089 10.5155 15.0078 9.9797 14.472C9.44388 13.9362 9.14286 13.2095 9.14286 12.4517V12.2917L8.90286 12.2117C8.31678 12.0165 7.68322 12.0165 7.09714 12.2117L6.85714 12.2917V12.4517C6.85714 13.2095 6.55612 13.9362 6.02031 14.472C5.48449 15.0078 4.75776 15.3089 4 15.3089C3.24224 15.3089 2.51551 15.0078 1.97969 14.472C1.44388 13.9362 1.14286 13.2095 1.14286 12.4517V11.3089ZM10.8571 10.7374H13.1429C13.2944 10.7374 13.4398 10.7976 13.5469 10.9048C13.6541 11.012 13.7143 11.1573 13.7143 11.3089V12.4517C13.7143 12.9064 13.5337 13.3424 13.2122 13.6639C12.8907 13.9854 12.4547 14.166 12 14.166C11.5453 14.166 11.1093 13.9854 10.7878 13.6639C10.4663 13.3424 10.2857 12.9064 10.2857 12.4517V11.3089C10.2857 11.1573 10.3459 11.012 10.4531 10.9048C10.5602 10.7976 10.7056 10.7374 10.8571 10.7374Z" fill="currentColor"/>
</svg>
