<svg width="13" height="21" viewBox="0 0 13 21" fill="none" xmlns="http://www.w3.org/2000/svg">
<mask id="mask0_1276_12534" style="mask-type:luminance" maskUnits="userSpaceOnUse" x="0" y="0" width="13" height="21">
<path d="M0 0.399902H12.5358V20.7746H0V0.399902Z" fill="white"/>
</mask>
<g mask="url(#mask0_1276_12534)">
<path fill-rule="evenodd" clip-rule="evenodd" d="M6.26662 9.80199C4.53644 9.80199 3.13568 8.39897 3.13568 6.66834C3.13568 4.93725 4.53644 3.53332 6.26662 3.53332C7.99998 3.53332 9.40118 4.93725 9.40118 6.66834C9.40118 8.39897 7.99998 9.80199 6.26662 9.80199ZM12.5357 6.66834C12.5357 3.20752 9.73016 0.399658 6.26662 0.399658C2.80625 0.399658 -0.000244141 3.20752 -0.000244141 6.66834C-0.000244141 7.81226 0.309219 8.87859 0.843747 9.80199H0.838302L6.26662 20.7748L11.6981 9.80199H11.689C12.2267 8.87859 12.5357 7.81226 12.5357 6.66834Z" fill="#FF0000"/>
</g>
</svg>
