<svg viewBox="0 0 20 26" fill="none" xmlns="http://www.w3.org/2000/svg">
<path fill-rule="evenodd" clip-rule="evenodd" d="M9.2722 19.2855C9.2722 17.366 10.8335 15.8047 12.7524 15.8047C14.6719 15.8047 16.2339 17.366 16.2339 19.2855C16.2339 21.2051 14.6719 22.7657 12.7524 22.7657C10.8335 22.7657 9.2722 21.2051 9.2722 19.2855ZM18.7364 24.9497L15.9317 22.1456C16.6156 21.3861 17.0357 20.3856 17.0357 19.2855C17.0357 16.9237 15.1149 15.0022 12.7524 15.0022C10.3912 15.0022 8.46973 16.9237 8.46973 19.2855C8.46973 21.6467 10.3912 23.5682 12.7524 23.5682C13.7138 23.5682 14.599 23.2464 15.3148 22.7097L18.1463 25.5405C18.2277 25.6219 18.3345 25.6629 18.4413 25.6629C18.5481 25.6629 18.655 25.6219 18.7364 25.5405C18.8999 25.377 18.8999 25.1132 18.7364 24.9497Z" fill="#00709B"/>
<mask id="mask0_1227_1223" style="mask-type:luminance" maskUnits="userSpaceOnUse" x="0" y="0" width="20" height="26">
<path d="M0 0.307861H19.3367V25.6925H0V0.307861Z" fill="white"/>
</mask>
<g mask="url(#mask0_1227_1223)">
<path fill-rule="evenodd" clip-rule="evenodd" d="M2.10127 10.6364C2.10127 10.1954 2.45887 9.83784 2.89983 9.83784H16.437C16.8786 9.83784 17.2355 10.1954 17.2355 10.6364C17.2355 11.0774 16.8786 11.435 16.437 11.435H2.89983C2.45887 11.435 2.10127 11.0774 2.10127 10.6364ZM2.89983 6.34006H16.437C16.8786 6.34006 17.2355 6.69766 17.2355 7.13862C17.2355 7.57959 16.8786 7.93718 16.437 7.93718H2.89983C2.45887 7.93718 2.10127 7.57959 2.10127 7.13862C2.10127 6.69766 2.45887 6.34006 2.89983 6.34006ZM2.89983 2.84228H16.437C16.8786 2.84228 17.2355 3.19988 17.2355 3.64085C17.2355 4.08181 16.8786 4.43941 16.437 4.43941H2.89983C2.45887 4.43941 2.10127 4.08181 2.10127 3.64085C2.10127 3.19988 2.45887 2.84228 2.89983 2.84228ZM12.8493 24.3175C10.0745 24.3175 7.81757 22.0599 7.81757 19.2857C7.81757 16.511 10.0745 14.2527 12.8493 14.2527C15.6234 14.2527 17.881 16.511 17.881 19.2857C17.881 20.2869 17.5807 21.2581 17.0251 22.0827L19.3368 24.3943V0.876494C19.3368 0.562541 19.0821 0.307861 18.7682 0.307861H0.568633C0.25468 0.307861 0 0.562541 0 0.876494V25.1238C0 25.4378 0.25468 25.6925 0.568633 25.6925H17.3352L15.3114 23.6687C14.5604 24.0947 13.7201 24.3175 12.8493 24.3175Z" fill="#00709B"/>
</g>
</svg>
