<svg viewBox="0 0 20 20" fill="none" xmlns="http://www.w3.org/2000/svg">
<g clip-path="url(#clip0_1658_1998)">
<path d="M15.1825 0.182763C15.2406 0.124559 15.3095 0.0783801 15.3855 0.0468721C15.4614 0.015364 15.5428 -0.000854492 15.625 -0.000854492C15.7072 -0.000854492 15.7886 0.015364 15.8645 0.0468721C15.9405 0.0783801 16.0094 0.124559 16.0675 0.182763L19.8175 3.93276C19.8757 3.99082 19.9219 4.05979 19.9534 4.13572C19.9849 4.21165 20.0011 4.29305 20.0011 4.37526C20.0011 4.45747 19.9849 4.53887 19.9534 4.6148C19.9219 4.69074 19.8757 4.75971 19.8175 4.81776L7.3175 17.3178C7.25752 17.3773 7.18608 17.4241 7.1075 17.4553L0.857502 19.9553C0.743922 20.0007 0.619497 20.0119 0.499651 19.9873C0.379806 19.9627 0.269811 19.9035 0.183303 19.817C0.0967945 19.7305 0.0375777 19.6205 0.0129933 19.5006C-0.011591 19.3808 -0.000461602 19.2563 0.0450017 19.1428L2.545 12.8928C2.57616 12.8142 2.62294 12.7427 2.6825 12.6828L15.1825 0.182763ZM14.0088 3.12526L16.875 5.99151L18.4913 4.37526L15.625 1.50901L14.0088 3.12526ZM15.9913 6.87526L13.125 4.00901L5 12.134V12.5003H5.625C5.79076 12.5003 5.94973 12.5661 6.06694 12.6833C6.18415 12.8005 6.25 12.9595 6.25 13.1253V13.7503H6.875C7.04076 13.7503 7.19973 13.8161 7.31694 13.9333C7.43415 14.0505 7.5 14.2095 7.5 14.3753V15.0003H7.86625L15.9913 6.87526ZM3.79 13.344L3.6575 13.4765L1.7475 18.2528L6.52375 16.3428L6.65625 16.2103C6.53703 16.1657 6.43424 16.0858 6.36165 15.9813C6.28905 15.8768 6.2501 15.7525 6.25 15.6253V15.0003H5.625C5.45924 15.0003 5.30027 14.9344 5.18306 14.8172C5.06585 14.7 5 14.541 5 14.3753V13.7503H4.375C4.24773 13.7502 4.12351 13.7112 4.01897 13.6386C3.91443 13.566 3.83455 13.4632 3.79 13.344Z" fill="currentColor"/>
</g>
<defs>
<clipPath id="clip0_1658_1998">
<rect width="20" height="20" fill="white"/>
</clipPath>
</defs>
</svg>
