<svg viewBox="0 0 14 15" fill="none" xmlns="http://www.w3.org/2000/svg">
<path d="M6.89923 0.60083C7.12795 0.60083 7.34731 0.69169 7.50904 0.853422C7.67077 1.01515 7.76163 1.23451 7.76163 1.46323V6.63765H12.936C13.1648 6.63765 13.3841 6.72851 13.5459 6.89024C13.7076 7.05198 13.7985 7.27133 13.7985 7.50006C13.7985 7.72878 13.7076 7.94814 13.5459 8.10987C13.3841 8.2716 13.1648 8.36246 12.936 8.36246H7.76163V13.5369C7.76163 13.7656 7.67077 13.985 7.50904 14.1467C7.34731 14.3084 7.12795 14.3993 6.89923 14.3993C6.6705 14.3993 6.45115 14.3084 6.28941 14.1467C6.12768 13.985 6.03682 13.7656 6.03682 13.5369V8.36246H0.862403C0.63368 8.36246 0.414324 8.2716 0.252592 8.10987C0.0908602 7.94814 0 7.72878 0 7.50006C0 7.27133 0.0908602 7.05198 0.252592 6.89024C0.414324 6.72851 0.63368 6.63765 0.862403 6.63765H6.03682V1.46323C6.03682 1.23451 6.12768 1.01515 6.28941 0.853422C6.45115 0.69169 6.6705 0.60083 6.89923 0.60083Z" fill="white"/>
</svg>
