<svg viewBox="0 0 14 10" fill="none" xmlns="http://www.w3.org/2000/svg">
<path d="M14 5C14 5 11.375 0.1875 7 0.1875C2.625 0.1875 0 5 0 5C0 5 2.625 9.8125 7 9.8125C11.375 9.8125 14 5 14 5ZM1.02637 5C1.44945 4.35698 1.93606 3.7581 2.47887 3.21237C3.605 2.0845 5.145 1.0625 7 1.0625C8.855 1.0625 10.3941 2.0845 11.522 3.21237C12.0648 3.7581 12.5514 4.35698 12.9745 5C12.9237 5.07613 12.8678 5.16013 12.8039 5.252C12.5107 5.672 12.0776 6.232 11.522 6.78763C10.3941 7.9155 8.85412 8.9375 7 8.9375C5.145 8.9375 3.60588 7.9155 2.478 6.78763C1.93519 6.2419 1.44946 5.64301 1.02637 5Z" fill="currentColor"/>
<path d="M7 2.8125C6.41984 2.8125 5.86344 3.04297 5.4532 3.4532C5.04297 3.86344 4.8125 4.41984 4.8125 5C4.8125 5.58016 5.04297 6.13656 5.4532 6.5468C5.86344 6.95703 6.41984 7.1875 7 7.1875C7.58016 7.1875 8.13656 6.95703 8.5468 6.5468C8.95703 6.13656 9.1875 5.58016 9.1875 5C9.1875 4.41984 8.95703 3.86344 8.5468 3.4532C8.13656 3.04297 7.58016 2.8125 7 2.8125ZM3.9375 5C3.9375 4.18777 4.26016 3.40882 4.83449 2.83449C5.40882 2.26016 6.18777 1.9375 7 1.9375C7.81223 1.9375 8.59118 2.26016 9.16551 2.83449C9.73984 3.40882 10.0625 4.18777 10.0625 5C10.0625 5.81223 9.73984 6.59118 9.16551 7.16551C8.59118 7.73984 7.81223 8.0625 7 8.0625C6.18777 8.0625 5.40882 7.73984 4.83449 7.16551C4.26016 6.59118 3.9375 5.81223 3.9375 5Z" fill="currentColor"/>
</svg>
