<svg viewBox="0 0 19 19" fill="none" xmlns="http://www.w3.org/2000/svg">
<path fill-rule="evenodd" clip-rule="evenodd" d="M7.52031 12.6662C4.68259 12.6662 2.37362 10.3568 2.37362 7.52059C2.37362 4.68056 4.68259 2.37596 7.52031 2.37596C10.358 2.37596 12.6641 4.68056 12.6641 7.52059C12.6641 10.3568 10.358 12.6662 7.52031 12.6662ZM18.5359 16.2974L13.9893 11.7486C13.9381 11.6964 13.8806 11.6585 13.8231 11.613C14.5904 10.4353 15.0397 9.03113 15.0397 7.52059C15.0397 3.36446 11.6741 0 7.52031 0C3.36599 0 0 3.36446 0 7.52059C0 11.6729 3.36599 15.0383 7.52031 15.0383C9.0328 15.0383 10.4337 14.5886 11.6138 13.8223C11.6588 13.8803 11.6981 13.9363 11.7498 13.988L16.2964 18.534C16.6063 18.8443 17.0114 19 17.4152 19C17.8204 19 18.228 18.8443 18.5359 18.5378C19.1547 17.9148 19.1547 16.9167 18.5359 16.2974Z" fill="currentColor"/>
</svg>
